<svg width="22" height="22" viewBox="0 0 19 19" fill="none" xmlns="http://www.w3.org/2000/svg">
<path d="M18.3634 14.8807L16.0164 12.0007L15.9328 6.92857C15.9356 6.89434 15.9356 6.85994 15.9328 6.82571C15.1934 2.80143 12.8528 0.5 9.50274 0.5C5.9662 0.5 3.12411 3.07143 2.42966 6.81286C2.42618 6.85135 2.42618 6.89008 2.42966 6.92857L2.34607 12.0714L0.590663 14.9514C0.534228 15.0492 0.504517 15.16 0.504517 15.2729C0.504517 15.3857 0.534228 15.4966 0.590663 15.5943C0.645126 15.6938 0.724976 15.7772 0.822102 15.8359C0.919227 15.8946 1.03017 15.9266 1.14365 15.9286H6.93071C6.93071 16.6106 7.20169 17.2646 7.68404 17.7468C8.16639 18.2291 8.8206 18.5 9.50274 18.5C10.1849 18.5 10.8391 18.2291 11.3214 17.7468C11.8038 17.2646 12.0748 16.6106 12.0748 15.9286H17.8618C17.983 15.9282 18.1017 15.8936 18.2041 15.8288C18.3064 15.764 18.3884 15.6715 18.4405 15.5621C18.4933 15.4529 18.5141 15.3309 18.5004 15.2103C18.4868 15.0897 18.4393 14.9754 18.3634 14.8807ZM9.50274 17.2143C9.16167 17.2143 8.83457 17.0788 8.59339 16.8377C8.35222 16.5966 8.21673 16.2696 8.21673 15.9286H10.7888C10.7888 16.2696 10.6533 16.5966 10.4121 16.8377C10.1709 17.0788 9.84381 17.2143 9.50274 17.2143ZM2.28177 14.6429L3.56779 12.56C3.62558 12.4627 3.65663 12.3518 3.65781 12.2386L3.71568 6.99286C4.30081 3.875 6.62207 1.78571 9.50274 1.78571C13.1229 1.78571 14.2803 5 14.6468 6.99286L14.7368 12.2386C14.7377 12.3836 14.7875 12.524 14.8783 12.6371L16.5115 14.6429H2.28177Z" fill="#EDEDED"/>
</svg>
