<svg width="390" height="38" viewBox="0 0 390 38" fill="none" xmlns="http://www.w3.org/2000/svg">
<rect width="390" height="38" fill="#0A7ED2"/>
<path d="M14.2881 13.9688L15.1426 13.8516C15.1654 14.3984 15.2679 14.7728 15.4502 14.9746C15.6325 15.1764 15.8848 15.2773 16.207 15.2773C16.4447 15.2773 16.6497 15.2236 16.8223 15.1162C16.9948 15.0055 17.1136 14.8574 17.1787 14.6719C17.2438 14.4831 17.2764 14.1836 17.2764 13.7734V8.8418H18.2236V13.7197C18.2236 14.3187 18.1504 14.7826 18.0039 15.1113C17.8607 15.4401 17.6312 15.6908 17.3154 15.8633C17.0029 16.0358 16.6351 16.1221 16.2119 16.1221C15.5837 16.1221 15.1019 15.9414 14.7666 15.5801C14.4346 15.2188 14.2751 14.6816 14.2881 13.9688ZM19.332 13.4072C19.332 12.4469 19.599 11.7357 20.1328 11.2734C20.5788 10.8893 21.1224 10.6973 21.7637 10.6973C22.4766 10.6973 23.0592 10.9316 23.5117 11.4004C23.9642 11.8659 24.1904 12.5104 24.1904 13.334C24.1904 14.0013 24.0895 14.527 23.8877 14.9111C23.6891 15.292 23.3978 15.5882 23.0137 15.7998C22.6328 16.0114 22.2161 16.1172 21.7637 16.1172C21.0378 16.1172 20.4502 15.8844 20.001 15.4189C19.555 14.9535 19.332 14.2829 19.332 13.4072ZM20.2354 13.4072C20.2354 14.0713 20.3802 14.5693 20.6699 14.9014C20.9596 15.2301 21.3242 15.3945 21.7637 15.3945C22.1999 15.3945 22.5628 15.2285 22.8525 14.8965C23.1423 14.5645 23.2871 14.0583 23.2871 13.3779C23.2871 12.7367 23.1406 12.2516 22.8477 11.9229C22.5579 11.5908 22.1966 11.4248 21.7637 11.4248C21.3242 11.4248 20.9596 11.5892 20.6699 11.918C20.3802 12.2467 20.2354 12.7432 20.2354 13.4072ZM26.0361 16H25.2207V8.8418H26.0996V11.3955C26.4707 10.93 26.9443 10.6973 27.5205 10.6973C27.8395 10.6973 28.1406 10.7624 28.4238 10.8926C28.7103 11.0195 28.9447 11.2002 29.127 11.4346C29.3125 11.6657 29.4574 11.9456 29.5615 12.2744C29.6657 12.6032 29.7178 12.9548 29.7178 13.3291C29.7178 14.2178 29.498 14.9046 29.0586 15.3896C28.6191 15.8747 28.0918 16.1172 27.4766 16.1172C26.8646 16.1172 26.3844 15.8617 26.0361 15.3506V16ZM26.0264 13.3682C26.0264 13.9899 26.111 14.4391 26.2803 14.7158C26.557 15.1683 26.9313 15.3945 27.4033 15.3945C27.7874 15.3945 28.1195 15.2285 28.3994 14.8965C28.6794 14.5612 28.8193 14.0632 28.8193 13.4023C28.8193 12.7253 28.6842 12.2256 28.4141 11.9033C28.1471 11.5811 27.8232 11.4199 27.4424 11.4199C27.0583 11.4199 26.7262 11.5876 26.4463 11.9229C26.1663 12.2549 26.0264 12.7367 26.0264 13.3682ZM33.5752 17.9873V10.8145H34.376V11.4883C34.5648 11.2246 34.778 11.0277 35.0156 10.8975C35.2533 10.764 35.5413 10.6973 35.8799 10.6973C36.3226 10.6973 36.7132 10.8112 37.0518 11.0391C37.3903 11.2669 37.6458 11.5892 37.8184 12.0059C37.9909 12.4193 38.0771 12.8734 38.0771 13.3682C38.0771 13.8988 37.9811 14.3773 37.7891 14.8037C37.6003 15.2269 37.3236 15.5524 36.959 15.7803C36.5977 16.0049 36.2168 16.1172 35.8164 16.1172C35.5234 16.1172 35.2598 16.0553 35.0254 15.9316C34.7943 15.8079 34.6038 15.6517 34.4541 15.4629V17.9873H33.5752ZM34.3711 13.4365C34.3711 14.1038 34.5062 14.597 34.7764 14.916C35.0465 15.235 35.3737 15.3945 35.7578 15.3945C36.1484 15.3945 36.4821 15.2301 36.7588 14.9014C37.0387 14.5693 37.1787 14.0566 37.1787 13.3633C37.1787 12.7025 37.042 12.2077 36.7686 11.8789C36.4984 11.5501 36.1745 11.3857 35.7969 11.3857C35.4225 11.3857 35.0905 11.5615 34.8008 11.9131C34.5143 12.2614 34.3711 12.7692 34.3711 13.4365ZM39.1221 16V8.8418H40.001V16H39.1221ZM44.7666 16V15.2383C44.363 15.8242 43.8145 16.1172 43.1211 16.1172C42.8151 16.1172 42.5286 16.0586 42.2617 15.9414C41.998 15.8242 41.8011 15.6777 41.6709 15.502C41.5439 15.3229 41.4544 15.1048 41.4023 14.8477C41.3665 14.6751 41.3486 14.4017 41.3486 14.0273V10.8145H42.2275V13.6904C42.2275 14.1494 42.2454 14.4587 42.2812 14.6182C42.3366 14.8493 42.4538 15.0316 42.6328 15.165C42.8118 15.2952 43.0332 15.3604 43.2969 15.3604C43.5605 15.3604 43.8079 15.2936 44.0391 15.1602C44.2702 15.0234 44.4329 14.8395 44.5273 14.6084C44.625 14.374 44.6738 14.0355 44.6738 13.5928V10.8145H45.5527V16H44.7666ZM46.583 14.4521L47.4521 14.3154C47.501 14.6637 47.6361 14.9307 47.8574 15.1162C48.082 15.3018 48.3945 15.3945 48.7949 15.3945C49.1986 15.3945 49.498 15.3132 49.6934 15.1504C49.8887 14.9844 49.9863 14.7907 49.9863 14.5693C49.9863 14.3708 49.9001 14.2145 49.7275 14.1006C49.6071 14.0225 49.3076 13.9232 48.8291 13.8027C48.1846 13.64 47.737 13.5 47.4863 13.3828C47.2389 13.2624 47.0501 13.098 46.9199 12.8896C46.793 12.6781 46.7295 12.4453 46.7295 12.1914C46.7295 11.9603 46.7816 11.7471 46.8857 11.5518C46.9932 11.3532 47.138 11.1888 47.3203 11.0586C47.457 10.9577 47.6426 10.873 47.877 10.8047C48.1146 10.7331 48.3685 10.6973 48.6387 10.6973C49.0456 10.6973 49.402 10.7559 49.708 10.873C50.0173 10.9902 50.2451 11.1497 50.3916 11.3516C50.5381 11.5501 50.639 11.8171 50.6943 12.1523L49.835 12.2695C49.7959 12.0026 49.682 11.7943 49.4932 11.6445C49.3076 11.4948 49.0439 11.4199 48.7021 11.4199C48.2985 11.4199 48.0104 11.4867 47.8379 11.6201C47.6654 11.7536 47.5791 11.9098 47.5791 12.0889C47.5791 12.2028 47.6149 12.3053 47.6865 12.3965C47.7581 12.4909 47.8704 12.569 48.0234 12.6309C48.1113 12.6634 48.3701 12.7383 48.7998 12.8555C49.4215 13.0215 49.8545 13.1582 50.0986 13.2656C50.346 13.3698 50.5397 13.5228 50.6797 13.7246C50.8197 13.9264 50.8896 14.1771 50.8896 14.4766C50.8896 14.7695 50.8034 15.0462 50.6309 15.3066C50.4616 15.5638 50.2158 15.764 49.8936 15.9072C49.5713 16.0472 49.2067 16.1172 48.7998 16.1172C48.126 16.1172 47.6117 15.9772 47.2568 15.6973C46.9053 15.4173 46.6807 15.0023 46.583 14.4521ZM58.1162 16V15.2383C57.7126 15.8242 57.1641 16.1172 56.4707 16.1172C56.1647 16.1172 55.8783 16.0586 55.6113 15.9414C55.3477 15.8242 55.1507 15.6777 55.0205 15.502C54.8936 15.3229 54.804 15.1048 54.752 14.8477C54.7161 14.6751 54.6982 14.4017 54.6982 14.0273V10.8145H55.5771V13.6904C55.5771 14.1494 55.5951 14.4587 55.6309 14.6182C55.6862 14.8493 55.8034 15.0316 55.9824 15.165C56.1615 15.2952 56.3828 15.3604 56.6465 15.3604C56.9102 15.3604 57.1576 15.2936 57.3887 15.1602C57.6198 15.0234 57.7826 14.8395 57.877 14.6084C57.9746 14.374 58.0234 14.0355 58.0234 13.5928V10.8145H58.9023V16H58.1162ZM59.9326 14.4521L60.8018 14.3154C60.8506 14.6637 60.9857 14.9307 61.207 15.1162C61.4316 15.3018 61.7441 15.3945 62.1445 15.3945C62.5482 15.3945 62.8477 15.3132 63.043 15.1504C63.2383 14.9844 63.3359 14.7907 63.3359 14.5693C63.3359 14.3708 63.2497 14.2145 63.0771 14.1006C62.9567 14.0225 62.6572 13.9232 62.1787 13.8027C61.5342 13.64 61.0866 13.5 60.8359 13.3828C60.5885 13.2624 60.3997 13.098 60.2695 12.8896C60.1426 12.6781 60.0791 12.4453 60.0791 12.1914C60.0791 11.9603 60.1312 11.7471 60.2354 11.5518C60.3428 11.3532 60.4876 11.1888 60.6699 11.0586C60.8066 10.9577 60.9922 10.873 61.2266 10.8047C61.4642 10.7331 61.7181 10.6973 61.9883 10.6973C62.3952 10.6973 62.7516 10.7559 63.0576 10.873C63.3669 10.9902 63.5947 11.1497 63.7412 11.3516C63.8877 11.5501 63.9886 11.8171 64.0439 12.1523L63.1846 12.2695C63.1455 12.0026 63.0316 11.7943 62.8428 11.6445C62.6572 11.4948 62.3936 11.4199 62.0518 11.4199C61.6481 11.4199 61.36 11.4867 61.1875 11.6201C61.015 11.7536 60.9287 11.9098 60.9287 12.0889C60.9287 12.2028 60.9645 12.3053 61.0361 12.3965C61.1077 12.4909 61.2201 12.569 61.373 12.6309C61.4609 12.6634 61.7197 12.7383 62.1494 12.8555C62.7712 13.0215 63.2041 13.1582 63.4482 13.2656C63.6956 13.3698 63.8893 13.5228 64.0293 13.7246C64.1693 13.9264 64.2393 14.1771 64.2393 14.4766C64.2393 14.7695 64.153 15.0462 63.9805 15.3066C63.8112 15.5638 63.5654 15.764 63.2432 15.9072C62.9209 16.0472 62.5563 16.1172 62.1494 16.1172C61.4756 16.1172 60.9613 15.9772 60.6064 15.6973C60.2549 15.4173 60.0303 15.0023 59.9326 14.4521ZM68.834 14.3301L69.7422 14.4424C69.599 14.973 69.3337 15.3848 68.9463 15.6777C68.5589 15.9707 68.0641 16.1172 67.4619 16.1172C66.7035 16.1172 66.1012 15.8844 65.6553 15.4189C65.2126 14.9502 64.9912 14.2943 64.9912 13.4512C64.9912 12.5788 65.2158 11.9017 65.665 11.4199C66.1143 10.9382 66.6969 10.6973 67.4131 10.6973C68.1064 10.6973 68.6729 10.9333 69.1123 11.4053C69.5518 11.8773 69.7715 12.5413 69.7715 13.3975C69.7715 13.4495 69.7699 13.5277 69.7666 13.6318H65.8994C65.932 14.2015 66.0931 14.6377 66.3828 14.9404C66.6725 15.2432 67.0339 15.3945 67.4668 15.3945C67.7891 15.3945 68.0641 15.3099 68.292 15.1406C68.5199 14.9714 68.7005 14.7012 68.834 14.3301ZM65.9482 12.9092H68.8438C68.8047 12.473 68.694 12.1458 68.5117 11.9277C68.2318 11.5892 67.8688 11.4199 67.4229 11.4199C67.0192 11.4199 66.679 11.555 66.4023 11.8252C66.1289 12.0954 65.9775 12.4567 65.9482 12.9092ZM70.499 14.4521L71.3682 14.3154C71.417 14.6637 71.5521 14.9307 71.7734 15.1162C71.998 15.3018 72.3105 15.3945 72.7109 15.3945C73.1146 15.3945 73.4141 15.3132 73.6094 15.1504C73.8047 14.9844 73.9023 14.7907 73.9023 14.5693C73.9023 14.3708 73.8161 14.2145 73.6436 14.1006C73.5231 14.0225 73.2236 13.9232 72.7451 13.8027C72.1006 13.64 71.653 13.5 71.4023 13.3828C71.1549 13.2624 70.9661 13.098 70.8359 12.8896C70.709 12.6781 70.6455 12.4453 70.6455 12.1914C70.6455 11.9603 70.6976 11.7471 70.8018 11.5518C70.9092 11.3532 71.054 11.1888 71.2363 11.0586C71.373 10.9577 71.5586 10.873 71.793 10.8047C72.0306 10.7331 72.2845 10.6973 72.5547 10.6973C72.9616 10.6973 73.318 10.7559 73.624 10.873C73.9333 10.9902 74.1611 11.1497 74.3076 11.3516C74.4541 11.5501 74.555 11.8171 74.6104 12.1523L73.751 12.2695C73.7119 12.0026 73.598 11.7943 73.4092 11.6445C73.2236 11.4948 72.96 11.4199 72.6182 11.4199C72.2145 11.4199 71.9264 11.4867 71.7539 11.6201C71.5814 11.7536 71.4951 11.9098 71.4951 12.0889C71.4951 12.2028 71.5309 12.3053 71.6025 12.3965C71.6742 12.4909 71.7865 12.569 71.9395 12.6309C72.0273 12.6634 72.2861 12.7383 72.7158 12.8555C73.3376 13.0215 73.7705 13.1582 74.0146 13.2656C74.262 13.3698 74.4557 13.5228 74.5957 13.7246C74.7357 13.9264 74.8057 14.1771 74.8057 14.4766C74.8057 14.7695 74.7194 15.0462 74.5469 15.3066C74.3776 15.5638 74.1318 15.764 73.8096 15.9072C73.4873 16.0472 73.1227 16.1172 72.7158 16.1172C72.042 16.1172 71.5277 15.9772 71.1729 15.6973C70.8213 15.4173 70.5967 15.0023 70.499 14.4521ZM82.0176 14.1006L82.8818 14.2129C82.7874 14.8086 82.5449 15.2757 82.1543 15.6143C81.7669 15.9495 81.29 16.1172 80.7236 16.1172C80.014 16.1172 79.4427 15.8861 79.0098 15.4238C78.5801 14.9583 78.3652 14.2926 78.3652 13.4268C78.3652 12.8669 78.458 12.377 78.6436 11.957C78.8291 11.5371 79.1107 11.223 79.4883 11.0146C79.8691 10.8031 80.2826 10.6973 80.7285 10.6973C81.2917 10.6973 81.7523 10.8405 82.1104 11.127C82.4684 11.4102 82.6979 11.8138 82.7988 12.3379L81.9443 12.4697C81.863 12.1214 81.7181 11.8594 81.5098 11.6836C81.3047 11.5078 81.0557 11.4199 80.7627 11.4199C80.32 11.4199 79.9603 11.5794 79.6836 11.8984C79.4069 12.2142 79.2686 12.7155 79.2686 13.4023C79.2686 14.099 79.402 14.6051 79.6689 14.9209C79.9359 15.2367 80.2842 15.3945 80.7139 15.3945C81.0589 15.3945 81.347 15.2887 81.5781 15.0771C81.8092 14.8656 81.9557 14.54 82.0176 14.1006ZM83.3066 13.4072C83.3066 12.4469 83.5736 11.7357 84.1074 11.2734C84.5534 10.8893 85.097 10.6973 85.7383 10.6973C86.4512 10.6973 87.0339 10.9316 87.4863 11.4004C87.9388 11.8659 88.165 12.5104 88.165 13.334C88.165 14.0013 88.0641 14.527 87.8623 14.9111C87.6637 15.292 87.3724 15.5882 86.9883 15.7998C86.6074 16.0114 86.1908 16.1172 85.7383 16.1172C85.0124 16.1172 84.4248 15.8844 83.9756 15.4189C83.5296 14.9535 83.3066 14.2829 83.3066 13.4072ZM84.21 13.4072C84.21 14.0713 84.3548 14.5693 84.6445 14.9014C84.9342 15.2301 85.2988 15.3945 85.7383 15.3945C86.1745 15.3945 86.5374 15.2285 86.8271 14.8965C87.1169 14.5645 87.2617 14.0583 87.2617 13.3779C87.2617 12.7367 87.1152 12.2516 86.8223 11.9229C86.5326 11.5908 86.1712 11.4248 85.7383 11.4248C85.2988 11.4248 84.9342 11.5892 84.6445 11.918C84.3548 12.2467 84.21 12.7432 84.21 13.4072ZM88.873 13.4072C88.873 12.4469 89.14 11.7357 89.6738 11.2734C90.1198 10.8893 90.6634 10.6973 91.3047 10.6973C92.0176 10.6973 92.6003 10.9316 93.0527 11.4004C93.5052 11.8659 93.7314 12.5104 93.7314 13.334C93.7314 14.0013 93.6305 14.527 93.4287 14.9111C93.2301 15.292 92.9388 15.5882 92.5547 15.7998C92.1738 16.0114 91.7572 16.1172 91.3047 16.1172C90.5788 16.1172 89.9912 15.8844 89.542 15.4189C89.096 14.9535 88.873 14.2829 88.873 13.4072ZM89.7764 13.4072C89.7764 14.0713 89.9212 14.5693 90.2109 14.9014C90.5007 15.2301 90.8652 15.3945 91.3047 15.3945C91.7409 15.3945 92.1038 15.2285 92.3936 14.8965C92.6833 14.5645 92.8281 14.0583 92.8281 13.3779C92.8281 12.7367 92.6816 12.2516 92.3887 11.9229C92.099 11.5908 91.7376 11.4248 91.3047 11.4248C90.8652 11.4248 90.5007 11.5892 90.2109 11.918C89.9212 12.2467 89.7764 12.7432 89.7764 13.4072ZM94.7715 16V8.8418H95.6504V12.9238L97.7305 10.8145H98.8682L96.8857 12.7383L99.0684 16H97.9844L96.2705 13.3486L95.6504 13.9443V16H94.7715ZM99.7715 9.85254V8.8418H100.65V9.85254H99.7715ZM99.7715 16V10.8145H100.65V16H99.7715ZM105.543 14.3301L106.451 14.4424C106.308 14.973 106.043 15.3848 105.655 15.6777C105.268 15.9707 104.773 16.1172 104.171 16.1172C103.412 16.1172 102.81 15.8844 102.364 15.4189C101.922 14.9502 101.7 14.2943 101.7 13.4512C101.7 12.5788 101.925 11.9017 102.374 11.4199C102.823 10.9382 103.406 10.6973 104.122 10.6973C104.815 10.6973 105.382 10.9333 105.821 11.4053C106.261 11.8773 106.48 12.5413 106.48 13.3975C106.48 13.4495 106.479 13.5277 106.476 13.6318H102.608C102.641 14.2015 102.802 14.6377 103.092 14.9404C103.382 15.2432 103.743 15.3945 104.176 15.3945C104.498 15.3945 104.773 15.3099 105.001 15.1406C105.229 14.9714 105.41 14.7012 105.543 14.3301ZM102.657 12.9092H105.553C105.514 12.473 105.403 12.1458 105.221 11.9277C104.941 11.5892 104.578 11.4199 104.132 11.4199C103.728 11.4199 103.388 11.555 103.111 11.8252C102.838 12.0954 102.687 12.4567 102.657 12.9092ZM107.208 14.4521L108.077 14.3154C108.126 14.6637 108.261 14.9307 108.482 15.1162C108.707 15.3018 109.02 15.3945 109.42 15.3945C109.824 15.3945 110.123 15.3132 110.318 15.1504C110.514 14.9844 110.611 14.7907 110.611 14.5693C110.611 14.3708 110.525 14.2145 110.353 14.1006C110.232 14.0225 109.933 13.9232 109.454 13.8027C108.81 13.64 108.362 13.5 108.111 13.3828C107.864 13.2624 107.675 13.098 107.545 12.8896C107.418 12.6781 107.354 12.4453 107.354 12.1914C107.354 11.9603 107.407 11.7471 107.511 11.5518C107.618 11.3532 107.763 11.1888 107.945 11.0586C108.082 10.9577 108.268 10.873 108.502 10.8047C108.74 10.7331 108.993 10.6973 109.264 10.6973C109.671 10.6973 110.027 10.7559 110.333 10.873C110.642 10.9902 110.87 11.1497 111.017 11.3516C111.163 11.5501 111.264 11.8171 111.319 12.1523L110.46 12.2695C110.421 12.0026 110.307 11.7943 110.118 11.6445C109.933 11.4948 109.669 11.4199 109.327 11.4199C108.924 11.4199 108.635 11.4867 108.463 11.6201C108.29 11.7536 108.204 11.9098 108.204 12.0889C108.204 12.2028 108.24 12.3053 108.312 12.3965C108.383 12.4909 108.495 12.569 108.648 12.6309C108.736 12.6634 108.995 12.7383 109.425 12.8555C110.047 13.0215 110.479 13.1582 110.724 13.2656C110.971 13.3698 111.165 13.5228 111.305 13.7246C111.445 13.9264 111.515 14.1771 111.515 14.4766C111.515 14.7695 111.428 15.0462 111.256 15.3066C111.087 15.5638 110.841 15.764 110.519 15.9072C110.196 16.0472 109.832 16.1172 109.425 16.1172C108.751 16.1172 108.237 15.9772 107.882 15.6973C107.53 15.4173 107.306 15.0023 107.208 14.4521ZM112.809 16V14.999H113.81V16H112.809ZM118.199 16V8.8418H120.885C121.432 8.8418 121.869 8.91504 122.198 9.06152C122.53 9.20475 122.789 9.42773 122.975 9.73047C123.163 10.0299 123.258 10.3441 123.258 10.6729C123.258 10.9788 123.175 11.2669 123.009 11.5371C122.843 11.8073 122.592 12.0254 122.257 12.1914C122.69 12.3184 123.022 12.5348 123.253 12.8408C123.487 13.1468 123.604 13.5081 123.604 13.9248C123.604 14.2601 123.533 14.5726 123.39 14.8623C123.25 15.1488 123.076 15.3701 122.867 15.5264C122.659 15.6826 122.397 15.8014 122.081 15.8828C121.769 15.9609 121.384 16 120.929 16H118.199ZM119.146 11.8496H120.694C121.114 11.8496 121.415 11.8219 121.598 11.7666C121.839 11.695 122.019 11.5762 122.14 11.4102C122.263 11.2441 122.325 11.0358 122.325 10.7852C122.325 10.5475 122.268 10.3392 122.154 10.1602C122.04 9.97786 121.878 9.85417 121.666 9.78906C121.454 9.7207 121.091 9.68652 120.577 9.68652H119.146V11.8496ZM119.146 15.1553H120.929C121.235 15.1553 121.45 15.1439 121.573 15.1211C121.791 15.082 121.974 15.0169 122.12 14.9258C122.267 14.8346 122.387 14.7028 122.481 14.5303C122.576 14.3545 122.623 14.1527 122.623 13.9248C122.623 13.6579 122.555 13.4268 122.418 13.2314C122.281 13.0329 122.091 12.8945 121.847 12.8164C121.606 12.735 121.257 12.6943 120.802 12.6943H119.146V15.1553ZM124.757 17.9971L124.659 17.1719C124.851 17.224 125.019 17.25 125.162 17.25C125.357 17.25 125.514 17.2174 125.631 17.1523C125.748 17.0872 125.844 16.9961 125.919 16.8789C125.974 16.791 126.064 16.5729 126.188 16.2246C126.204 16.1758 126.23 16.1042 126.266 16.0098L124.298 10.8145H125.245L126.324 13.8174C126.464 14.1982 126.59 14.5986 126.7 15.0186C126.801 14.6149 126.922 14.221 127.062 13.8369L128.17 10.8145H129.049L127.076 16.0879C126.865 16.6576 126.7 17.0498 126.583 17.2646C126.427 17.5544 126.248 17.766 126.046 17.8994C125.844 18.0361 125.603 18.1045 125.323 18.1045C125.154 18.1045 124.965 18.0687 124.757 17.9971ZM135.963 14.1006L136.827 14.2129C136.733 14.8086 136.49 15.2757 136.1 15.6143C135.712 15.9495 135.235 16.1172 134.669 16.1172C133.959 16.1172 133.388 15.8861 132.955 15.4238C132.525 14.9583 132.311 14.2926 132.311 13.4268C132.311 12.8669 132.403 12.377 132.589 11.957C132.774 11.5371 133.056 11.223 133.434 11.0146C133.814 10.8031 134.228 10.6973 134.674 10.6973C135.237 10.6973 135.698 10.8405 136.056 11.127C136.414 11.4102 136.643 11.8138 136.744 12.3379L135.89 12.4697C135.808 12.1214 135.663 11.8594 135.455 11.6836C135.25 11.5078 135.001 11.4199 134.708 11.4199C134.265 11.4199 133.906 11.5794 133.629 11.8984C133.352 12.2142 133.214 12.7155 133.214 13.4023C133.214 14.099 133.347 14.6051 133.614 14.9209C133.881 15.2367 134.229 15.3945 134.659 15.3945C135.004 15.3945 135.292 15.2887 135.523 15.0771C135.755 14.8656 135.901 14.54 135.963 14.1006ZM137.252 13.4072C137.252 12.4469 137.519 11.7357 138.053 11.2734C138.499 10.8893 139.042 10.6973 139.684 10.6973C140.396 10.6973 140.979 10.9316 141.432 11.4004C141.884 11.8659 142.11 12.5104 142.11 13.334C142.11 14.0013 142.009 14.527 141.808 14.9111C141.609 15.292 141.318 15.5882 140.934 15.7998C140.553 16.0114 140.136 16.1172 139.684 16.1172C138.958 16.1172 138.37 15.8844 137.921 15.4189C137.475 14.9535 137.252 14.2829 137.252 13.4072ZM138.155 13.4072C138.155 14.0713 138.3 14.5693 138.59 14.9014C138.88 15.2301 139.244 15.3945 139.684 15.3945C140.12 15.3945 140.483 15.2285 140.772 14.8965C141.062 14.5645 141.207 14.0583 141.207 13.3779C141.207 12.7367 141.061 12.2516 140.768 11.9229C140.478 11.5908 140.117 11.4248 139.684 11.4248C139.244 11.4248 138.88 11.5892 138.59 11.918C138.3 12.2467 138.155 12.7432 138.155 13.4072ZM143.146 16V10.8145H143.937V11.5518C144.317 10.9821 144.868 10.6973 145.587 10.6973C145.899 10.6973 146.186 10.7542 146.446 10.8682C146.71 10.9788 146.907 11.1253 147.037 11.3076C147.167 11.4899 147.258 11.7064 147.311 11.957C147.343 12.1198 147.359 12.4046 147.359 12.8115V16H146.48V12.8457C146.48 12.4876 146.446 12.2207 146.378 12.0449C146.31 11.8659 146.188 11.7243 146.012 11.6201C145.839 11.5127 145.636 11.459 145.401 11.459C145.027 11.459 144.703 11.5778 144.43 11.8154C144.16 12.0531 144.024 12.5039 144.024 13.168V16H143.146ZM150.631 15.2139L150.758 15.9902C150.51 16.0423 150.289 16.0684 150.094 16.0684C149.775 16.0684 149.527 16.0179 149.352 15.917C149.176 15.8161 149.052 15.6842 148.98 15.5215C148.909 15.3555 148.873 15.0088 148.873 14.4814V11.498H148.229V10.8145H148.873V9.53027L149.747 9.00293V10.8145H150.631V11.498H149.747V14.5303C149.747 14.7809 149.762 14.9421 149.791 15.0137C149.824 15.0853 149.874 15.1423 149.942 15.1846C150.014 15.2269 150.115 15.248 150.245 15.248C150.343 15.248 150.471 15.2367 150.631 15.2139ZM151.5 9.85254V8.8418H152.379V9.85254H151.5ZM151.5 16V10.8145H152.379V16H151.5ZM153.722 16V10.8145H154.513V11.5518C154.894 10.9821 155.444 10.6973 156.163 10.6973C156.476 10.6973 156.762 10.7542 157.022 10.8682C157.286 10.9788 157.483 11.1253 157.613 11.3076C157.743 11.4899 157.835 11.7064 157.887 11.957C157.919 12.1198 157.936 12.4046 157.936 12.8115V16H157.057V12.8457C157.057 12.4876 157.022 12.2207 156.954 12.0449C156.886 11.8659 156.764 11.7243 156.588 11.6201C156.415 11.5127 156.212 11.459 155.978 11.459C155.603 11.459 155.279 11.5778 155.006 11.8154C154.736 12.0531 154.601 12.5039 154.601 13.168V16H153.722ZM162.687 16V15.2383C162.283 15.8242 161.734 16.1172 161.041 16.1172C160.735 16.1172 160.449 16.0586 160.182 15.9414C159.918 15.8242 159.721 15.6777 159.591 15.502C159.464 15.3229 159.374 15.1048 159.322 14.8477C159.286 14.6751 159.269 14.4017 159.269 14.0273V10.8145H160.147V13.6904C160.147 14.1494 160.165 14.4587 160.201 14.6182C160.257 14.8493 160.374 15.0316 160.553 15.165C160.732 15.2952 160.953 15.3604 161.217 15.3604C161.48 15.3604 161.728 15.2936 161.959 15.1602C162.19 15.0234 162.353 14.8395 162.447 14.6084C162.545 14.374 162.594 14.0355 162.594 13.5928V10.8145H163.473V16H162.687ZM164.859 9.85254V8.8418H165.738V9.85254H164.859ZM164.859 16V10.8145H165.738V16H164.859ZM167.081 16V10.8145H167.872V11.5518C168.253 10.9821 168.803 10.6973 169.522 10.6973C169.835 10.6973 170.121 10.7542 170.382 10.8682C170.646 10.9788 170.842 11.1253 170.973 11.3076C171.103 11.4899 171.194 11.7064 171.246 11.957C171.279 12.1198 171.295 12.4046 171.295 12.8115V16H170.416V12.8457C170.416 12.4876 170.382 12.2207 170.313 12.0449C170.245 11.8659 170.123 11.7243 169.947 11.6201C169.775 11.5127 169.571 11.459 169.337 11.459C168.963 11.459 168.639 11.5778 168.365 11.8154C168.095 12.0531 167.96 12.5039 167.96 13.168V16H167.081ZM172.486 16.4297L173.341 16.5566C173.377 16.8203 173.476 17.0124 173.639 17.1328C173.857 17.2956 174.155 17.377 174.532 17.377C174.939 17.377 175.253 17.2956 175.475 17.1328C175.696 16.9701 175.846 16.7422 175.924 16.4492C175.969 16.2702 175.991 15.8942 175.987 15.3213C175.603 15.7738 175.125 16 174.552 16C173.839 16 173.287 15.7428 172.896 15.2285C172.506 14.7142 172.311 14.0973 172.311 13.3779C172.311 12.8831 172.4 12.4274 172.579 12.0107C172.758 11.5908 173.017 11.2669 173.355 11.0391C173.697 10.8112 174.098 10.6973 174.557 10.6973C175.169 10.6973 175.673 10.9447 176.07 11.4395V10.8145H176.881V15.2969C176.881 16.1042 176.798 16.6755 176.632 17.0107C176.469 17.3493 176.209 17.6162 175.851 17.8115C175.496 18.0068 175.058 18.1045 174.537 18.1045C173.919 18.1045 173.419 17.9645 173.038 17.6846C172.657 17.4079 172.473 16.9896 172.486 16.4297ZM173.214 13.3145C173.214 13.9948 173.349 14.4912 173.619 14.8037C173.889 15.1162 174.228 15.2725 174.635 15.2725C175.038 15.2725 175.377 15.1178 175.65 14.8086C175.924 14.4961 176.061 14.0078 176.061 13.3438C176.061 12.709 175.919 12.2305 175.636 11.9082C175.356 11.5859 175.017 11.4248 174.62 11.4248C174.229 11.4248 173.897 11.5843 173.624 11.9033C173.351 12.2191 173.214 12.6895 173.214 13.3145ZM180.958 17.9971L180.86 17.1719C181.052 17.224 181.22 17.25 181.363 17.25C181.559 17.25 181.715 17.2174 181.832 17.1523C181.949 17.0872 182.045 16.9961 182.12 16.8789C182.175 16.791 182.265 16.5729 182.389 16.2246C182.405 16.1758 182.431 16.1042 182.467 16.0098L180.499 10.8145H181.446L182.525 13.8174C182.665 14.1982 182.791 14.5986 182.901 15.0186C183.002 14.6149 183.123 14.221 183.263 13.8369L184.371 10.8145H185.25L183.277 16.0879C183.066 16.6576 182.901 17.0498 182.784 17.2646C182.628 17.5544 182.449 17.766 182.247 17.8994C182.045 18.0361 181.804 18.1045 181.524 18.1045C181.355 18.1045 181.166 18.0687 180.958 17.9971ZM185.67 13.4072C185.67 12.4469 185.937 11.7357 186.471 11.2734C186.917 10.8893 187.46 10.6973 188.102 10.6973C188.814 10.6973 189.397 10.9316 189.85 11.4004C190.302 11.8659 190.528 12.5104 190.528 13.334C190.528 14.0013 190.427 14.527 190.226 14.9111C190.027 15.292 189.736 15.5882 189.352 15.7998C188.971 16.0114 188.554 16.1172 188.102 16.1172C187.376 16.1172 186.788 15.8844 186.339 15.4189C185.893 14.9535 185.67 14.2829 185.67 13.4072ZM186.573 13.4072C186.573 14.0713 186.718 14.5693 187.008 14.9014C187.298 15.2301 187.662 15.3945 188.102 15.3945C188.538 15.3945 188.901 15.2285 189.19 14.8965C189.48 14.5645 189.625 14.0583 189.625 13.3779C189.625 12.7367 189.479 12.2516 189.186 11.9229C188.896 11.5908 188.535 11.4248 188.102 11.4248C187.662 11.4248 187.298 11.5892 187.008 11.918C186.718 12.2467 186.573 12.7432 186.573 13.4072ZM194.962 16V15.2383C194.558 15.8242 194.01 16.1172 193.316 16.1172C193.01 16.1172 192.724 16.0586 192.457 15.9414C192.193 15.8242 191.996 15.6777 191.866 15.502C191.739 15.3229 191.65 15.1048 191.598 14.8477C191.562 14.6751 191.544 14.4017 191.544 14.0273V10.8145H192.423V13.6904C192.423 14.1494 192.441 14.4587 192.477 14.6182C192.532 14.8493 192.649 15.0316 192.828 15.165C193.007 15.2952 193.229 15.3604 193.492 15.3604C193.756 15.3604 194.003 15.2936 194.234 15.1602C194.465 15.0234 194.628 14.8395 194.723 14.6084C194.82 14.374 194.869 14.0355 194.869 13.5928V10.8145H195.748V16H194.962ZM203.297 15.3604C202.971 15.637 202.657 15.8324 202.354 15.9463C202.055 16.0602 201.733 16.1172 201.388 16.1172C200.818 16.1172 200.38 15.9788 200.074 15.7021C199.768 15.4222 199.615 15.0658 199.615 14.6328C199.615 14.3789 199.672 14.1478 199.786 13.9395C199.903 13.7279 200.055 13.5586 200.24 13.4316C200.429 13.3047 200.641 13.2087 200.875 13.1436C201.048 13.098 201.308 13.054 201.656 13.0117C202.366 12.9271 202.888 12.8262 203.224 12.709C203.227 12.5885 203.229 12.512 203.229 12.4795C203.229 12.1214 203.146 11.8691 202.979 11.7227C202.755 11.5241 202.421 11.4248 201.979 11.4248C201.565 11.4248 201.259 11.498 201.061 11.6445C200.865 11.7878 200.72 12.0433 200.626 12.4111L199.767 12.2939C199.845 11.9261 199.973 11.6299 200.152 11.4053C200.331 11.1774 200.59 11.0033 200.929 10.8828C201.267 10.7591 201.66 10.6973 202.105 10.6973C202.548 10.6973 202.908 10.7493 203.185 10.8535C203.461 10.9577 203.665 11.0895 203.795 11.249C203.925 11.4053 204.016 11.6038 204.068 11.8447C204.098 11.9945 204.112 12.2646 204.112 12.6553V13.8271C204.112 14.6442 204.13 15.1618 204.166 15.3799C204.205 15.5947 204.28 15.8014 204.391 16H203.473C203.382 15.8177 203.323 15.6045 203.297 15.3604ZM203.224 13.3975C202.905 13.5277 202.426 13.6383 201.788 13.7295C201.427 13.7816 201.171 13.8402 201.021 13.9053C200.872 13.9704 200.756 14.0664 200.675 14.1934C200.593 14.3171 200.553 14.4554 200.553 14.6084C200.553 14.8428 200.641 15.0381 200.816 15.1943C200.995 15.3506 201.256 15.4287 201.598 15.4287C201.936 15.4287 202.237 15.3555 202.501 15.209C202.765 15.0592 202.958 14.8558 203.082 14.5986C203.176 14.4001 203.224 14.1071 203.224 13.7197V13.3975ZM205.47 16V10.8145H206.261V11.6006C206.463 11.2327 206.648 10.9902 206.817 10.873C206.99 10.7559 207.179 10.6973 207.384 10.6973C207.68 10.6973 207.981 10.7917 208.287 10.9805L207.984 11.7959C207.77 11.6689 207.555 11.6055 207.34 11.6055C207.148 11.6055 206.975 11.6641 206.822 11.7812C206.669 11.8952 206.56 12.0547 206.495 12.2598C206.397 12.5723 206.349 12.9141 206.349 13.2852V16H205.47ZM212.359 14.3301L213.268 14.4424C213.124 14.973 212.859 15.3848 212.472 15.6777C212.084 15.9707 211.59 16.1172 210.987 16.1172C210.229 16.1172 209.627 15.8844 209.181 15.4189C208.738 14.9502 208.517 14.2943 208.517 13.4512C208.517 12.5788 208.741 11.9017 209.19 11.4199C209.64 10.9382 210.222 10.6973 210.938 10.6973C211.632 10.6973 212.198 10.9333 212.638 11.4053C213.077 11.8773 213.297 12.5413 213.297 13.3975C213.297 13.4495 213.295 13.5277 213.292 13.6318H209.425C209.457 14.2015 209.618 14.6377 209.908 14.9404C210.198 15.2432 210.559 15.3945 210.992 15.3945C211.314 15.3945 211.59 15.3099 211.817 15.1406C212.045 14.9714 212.226 14.7012 212.359 14.3301ZM209.474 12.9092H212.369C212.33 12.473 212.219 12.1458 212.037 11.9277C211.757 11.5892 211.394 11.4199 210.948 11.4199C210.545 11.4199 210.204 11.555 209.928 11.8252C209.654 12.0954 209.503 12.4567 209.474 12.9092ZM220.543 15.3604C220.217 15.637 219.903 15.8324 219.601 15.9463C219.301 16.0602 218.979 16.1172 218.634 16.1172C218.064 16.1172 217.626 15.9788 217.32 15.7021C217.014 15.4222 216.861 15.0658 216.861 14.6328C216.861 14.3789 216.918 14.1478 217.032 13.9395C217.149 13.7279 217.301 13.5586 217.486 13.4316C217.675 13.3047 217.887 13.2087 218.121 13.1436C218.294 13.098 218.554 13.054 218.902 13.0117C219.612 12.9271 220.134 12.8262 220.47 12.709C220.473 12.5885 220.475 12.512 220.475 12.4795C220.475 12.1214 220.392 11.8691 220.226 11.7227C220.001 11.5241 219.667 11.4248 219.225 11.4248C218.811 11.4248 218.505 11.498 218.307 11.6445C218.111 11.7878 217.966 12.0433 217.872 12.4111L217.013 12.2939C217.091 11.9261 217.219 11.6299 217.398 11.4053C217.577 11.1774 217.836 11.0033 218.175 10.8828C218.513 10.7591 218.906 10.6973 219.352 10.6973C219.794 10.6973 220.154 10.7493 220.431 10.8535C220.707 10.9577 220.911 11.0895 221.041 11.249C221.171 11.4053 221.262 11.6038 221.314 11.8447C221.344 11.9945 221.358 12.2646 221.358 12.6553V13.8271C221.358 14.6442 221.376 15.1618 221.412 15.3799C221.451 15.5947 221.526 15.8014 221.637 16H220.719C220.628 15.8177 220.569 15.6045 220.543 15.3604ZM220.47 13.3975C220.151 13.5277 219.672 13.6383 219.034 13.7295C218.673 13.7816 218.417 13.8402 218.268 13.9053C218.118 13.9704 218.002 14.0664 217.921 14.1934C217.84 14.3171 217.799 14.4554 217.799 14.6084C217.799 14.8428 217.887 15.0381 218.062 15.1943C218.242 15.3506 218.502 15.4287 218.844 15.4287C219.182 15.4287 219.483 15.3555 219.747 15.209C220.011 15.0592 220.204 14.8558 220.328 14.5986C220.423 14.4001 220.47 14.1071 220.47 13.7197V13.3975ZM222.564 16.4297L223.419 16.5566C223.455 16.8203 223.554 17.0124 223.717 17.1328C223.935 17.2956 224.233 17.377 224.61 17.377C225.017 17.377 225.331 17.2956 225.553 17.1328C225.774 16.9701 225.924 16.7422 226.002 16.4492C226.048 16.2702 226.069 15.8942 226.065 15.3213C225.681 15.7738 225.203 16 224.63 16C223.917 16 223.365 15.7428 222.975 15.2285C222.584 14.7142 222.389 14.0973 222.389 13.3779C222.389 12.8831 222.478 12.4274 222.657 12.0107C222.836 11.5908 223.095 11.2669 223.434 11.0391C223.775 10.8112 224.176 10.6973 224.635 10.6973C225.247 10.6973 225.751 10.9447 226.148 11.4395V10.8145H226.959V15.2969C226.959 16.1042 226.876 16.6755 226.71 17.0107C226.547 17.3493 226.287 17.6162 225.929 17.8115C225.574 18.0068 225.136 18.1045 224.615 18.1045C223.997 18.1045 223.497 17.9645 223.116 17.6846C222.735 17.4079 222.551 16.9896 222.564 16.4297ZM223.292 13.3145C223.292 13.9948 223.427 14.4912 223.697 14.8037C223.967 15.1162 224.306 15.2725 224.713 15.2725C225.117 15.2725 225.455 15.1178 225.729 14.8086C226.002 14.4961 226.139 14.0078 226.139 13.3438C226.139 12.709 225.997 12.2305 225.714 11.9082C225.434 11.5859 225.095 11.4248 224.698 11.4248C224.308 11.4248 223.976 11.5843 223.702 11.9033C223.429 12.2191 223.292 12.6895 223.292 13.3145ZM228.282 16V10.8145H229.073V11.6006C229.275 11.2327 229.461 10.9902 229.63 10.873C229.802 10.7559 229.991 10.6973 230.196 10.6973C230.493 10.6973 230.794 10.7917 231.1 10.9805L230.797 11.7959C230.582 11.6689 230.367 11.6055 230.152 11.6055C229.96 11.6055 229.788 11.6641 229.635 11.7812C229.482 11.8952 229.373 12.0547 229.308 12.2598C229.21 12.5723 229.161 12.9141 229.161 13.2852V16H228.282ZM235.172 14.3301L236.08 14.4424C235.937 14.973 235.672 15.3848 235.284 15.6777C234.897 15.9707 234.402 16.1172 233.8 16.1172C233.041 16.1172 232.439 15.8844 231.993 15.4189C231.55 14.9502 231.329 14.2943 231.329 13.4512C231.329 12.5788 231.554 11.9017 232.003 11.4199C232.452 10.9382 233.035 10.6973 233.751 10.6973C234.444 10.6973 235.011 10.9333 235.45 11.4053C235.89 11.8773 236.109 12.5413 236.109 13.3975C236.109 13.4495 236.108 13.5277 236.104 13.6318H232.237C232.27 14.2015 232.431 14.6377 232.721 14.9404C233.01 15.2432 233.372 15.3945 233.805 15.3945C234.127 15.3945 234.402 15.3099 234.63 15.1406C234.858 14.9714 235.038 14.7012 235.172 14.3301ZM232.286 12.9092H235.182C235.143 12.473 235.032 12.1458 234.85 11.9277C234.57 11.5892 234.207 11.4199 233.761 11.4199C233.357 11.4199 233.017 11.555 232.74 11.8252C232.467 12.0954 232.315 12.4567 232.286 12.9092ZM240.738 14.3301L241.646 14.4424C241.503 14.973 241.238 15.3848 240.851 15.6777C240.463 15.9707 239.968 16.1172 239.366 16.1172C238.608 16.1172 238.006 15.8844 237.56 15.4189C237.117 14.9502 236.896 14.2943 236.896 13.4512C236.896 12.5788 237.12 11.9017 237.569 11.4199C238.019 10.9382 238.601 10.6973 239.317 10.6973C240.011 10.6973 240.577 10.9333 241.017 11.4053C241.456 11.8773 241.676 12.5413 241.676 13.3975C241.676 13.4495 241.674 13.5277 241.671 13.6318H237.804C237.836 14.2015 237.997 14.6377 238.287 14.9404C238.577 15.2432 238.938 15.3945 239.371 15.3945C239.693 15.3945 239.968 15.3099 240.196 15.1406C240.424 14.9714 240.605 14.7012 240.738 14.3301ZM237.853 12.9092H240.748C240.709 12.473 240.598 12.1458 240.416 11.9277C240.136 11.5892 239.773 11.4199 239.327 11.4199C238.924 11.4199 238.583 11.555 238.307 11.8252C238.033 12.0954 237.882 12.4567 237.853 12.9092ZM242.76 9.85254V8.8418H243.639V9.85254H242.76ZM242.76 16V10.8145H243.639V16H242.76ZM244.981 16V10.8145H245.772V11.5518C246.153 10.9821 246.703 10.6973 247.423 10.6973C247.735 10.6973 248.022 10.7542 248.282 10.8682C248.546 10.9788 248.743 11.1253 248.873 11.3076C249.003 11.4899 249.094 11.7064 249.146 11.957C249.179 12.1198 249.195 12.4046 249.195 12.8115V16H248.316V12.8457C248.316 12.4876 248.282 12.2207 248.214 12.0449C248.146 11.8659 248.023 11.7243 247.848 11.6201C247.675 11.5127 247.472 11.459 247.237 11.459C246.863 11.459 246.539 11.5778 246.266 11.8154C245.995 12.0531 245.86 12.5039 245.86 13.168V16H244.981ZM250.387 16.4297L251.241 16.5566C251.277 16.8203 251.376 17.0124 251.539 17.1328C251.757 17.2956 252.055 17.377 252.433 17.377C252.84 17.377 253.154 17.2956 253.375 17.1328C253.596 16.9701 253.746 16.7422 253.824 16.4492C253.87 16.2702 253.891 15.8942 253.888 15.3213C253.504 15.7738 253.025 16 252.452 16C251.739 16 251.188 15.7428 250.797 15.2285C250.406 14.7142 250.211 14.0973 250.211 13.3779C250.211 12.8831 250.3 12.4274 250.479 12.0107C250.659 11.5908 250.917 11.2669 251.256 11.0391C251.598 10.8112 251.998 10.6973 252.457 10.6973C253.069 10.6973 253.574 10.9447 253.971 11.4395V10.8145H254.781V15.2969C254.781 16.1042 254.698 16.6755 254.532 17.0107C254.369 17.3493 254.109 17.6162 253.751 17.8115C253.396 18.0068 252.958 18.1045 252.438 18.1045C251.819 18.1045 251.319 17.9645 250.938 17.6846C250.558 17.4079 250.374 16.9896 250.387 16.4297ZM251.114 13.3145C251.114 13.9948 251.249 14.4912 251.52 14.8037C251.79 15.1162 252.128 15.2725 252.535 15.2725C252.939 15.2725 253.277 15.1178 253.551 14.8086C253.824 14.4961 253.961 14.0078 253.961 13.3438C253.961 12.709 253.819 12.2305 253.536 11.9082C253.256 11.5859 252.918 11.4248 252.521 11.4248C252.13 11.4248 251.798 11.5843 251.524 11.9033C251.251 12.2191 251.114 12.6895 251.114 13.3145ZM260.816 15.2139L260.943 15.9902C260.696 16.0423 260.475 16.0684 260.279 16.0684C259.96 16.0684 259.713 16.0179 259.537 15.917C259.361 15.8161 259.238 15.6842 259.166 15.5215C259.094 15.3555 259.059 15.0088 259.059 14.4814V11.498H258.414V10.8145H259.059V9.53027L259.933 9.00293V10.8145H260.816V11.498H259.933V14.5303C259.933 14.7809 259.947 14.9421 259.977 15.0137C260.009 15.0853 260.06 15.1423 260.128 15.1846C260.2 15.2269 260.3 15.248 260.431 15.248C260.528 15.248 260.657 15.2367 260.816 15.2139ZM261.354 13.4072C261.354 12.4469 261.62 11.7357 262.154 11.2734C262.6 10.8893 263.144 10.6973 263.785 10.6973C264.498 10.6973 265.081 10.9316 265.533 11.4004C265.986 11.8659 266.212 12.5104 266.212 13.334C266.212 14.0013 266.111 14.527 265.909 14.9111C265.711 15.292 265.419 15.5882 265.035 15.7998C264.654 16.0114 264.238 16.1172 263.785 16.1172C263.059 16.1172 262.472 15.8844 262.022 15.4189C261.576 14.9535 261.354 14.2829 261.354 13.4072ZM262.257 13.4072C262.257 14.0713 262.402 14.5693 262.691 14.9014C262.981 15.2301 263.346 15.3945 263.785 15.3945C264.221 15.3945 264.584 15.2285 264.874 14.8965C265.164 14.5645 265.309 14.0583 265.309 13.3779C265.309 12.7367 265.162 12.2516 264.869 11.9229C264.579 11.5908 264.218 11.4248 263.785 11.4248C263.346 11.4248 262.981 11.5892 262.691 11.918C262.402 12.2467 262.257 12.7432 262.257 13.4072ZM269.703 13.4072C269.703 12.4469 269.97 11.7357 270.504 11.2734C270.95 10.8893 271.493 10.6973 272.135 10.6973C272.848 10.6973 273.43 10.9316 273.883 11.4004C274.335 11.8659 274.562 12.5104 274.562 13.334C274.562 14.0013 274.461 14.527 274.259 14.9111C274.06 15.292 273.769 15.5882 273.385 15.7998C273.004 16.0114 272.587 16.1172 272.135 16.1172C271.409 16.1172 270.821 15.8844 270.372 15.4189C269.926 14.9535 269.703 14.2829 269.703 13.4072ZM270.606 13.4072C270.606 14.0713 270.751 14.5693 271.041 14.9014C271.331 15.2301 271.695 15.3945 272.135 15.3945C272.571 15.3945 272.934 15.2285 273.224 14.8965C273.513 14.5645 273.658 14.0583 273.658 13.3779C273.658 12.7367 273.512 12.2516 273.219 11.9229C272.929 11.5908 272.568 11.4248 272.135 11.4248C271.695 11.4248 271.331 11.5892 271.041 11.918C270.751 12.2467 270.606 12.7432 270.606 13.4072ZM278.995 16V15.2383C278.591 15.8242 278.043 16.1172 277.35 16.1172C277.044 16.1172 276.757 16.0586 276.49 15.9414C276.227 15.8242 276.03 15.6777 275.899 15.502C275.772 15.3229 275.683 15.1048 275.631 14.8477C275.595 14.6751 275.577 14.4017 275.577 14.0273V10.8145H276.456V13.6904C276.456 14.1494 276.474 14.4587 276.51 14.6182C276.565 14.8493 276.682 15.0316 276.861 15.165C277.04 15.2952 277.262 15.3604 277.525 15.3604C277.789 15.3604 278.036 15.2936 278.268 15.1602C278.499 15.0234 278.661 14.8395 278.756 14.6084C278.854 14.374 278.902 14.0355 278.902 13.5928V10.8145H279.781V16H278.995ZM281.153 16V10.8145H281.944V11.6006C282.146 11.2327 282.332 10.9902 282.501 10.873C282.674 10.7559 282.862 10.6973 283.067 10.6973C283.364 10.6973 283.665 10.7917 283.971 10.9805L283.668 11.7959C283.453 11.6689 283.238 11.6055 283.023 11.6055C282.831 11.6055 282.659 11.6641 282.506 11.7812C282.353 11.8952 282.244 12.0547 282.179 12.2598C282.081 12.5723 282.032 12.9141 282.032 13.2852V16H281.153ZM290.675 16V15.2383C290.271 15.8242 289.723 16.1172 289.029 16.1172C288.723 16.1172 288.437 16.0586 288.17 15.9414C287.906 15.8242 287.709 15.6777 287.579 15.502C287.452 15.3229 287.363 15.1048 287.311 14.8477C287.275 14.6751 287.257 14.4017 287.257 14.0273V10.8145H288.136V13.6904C288.136 14.1494 288.154 14.4587 288.189 14.6182C288.245 14.8493 288.362 15.0316 288.541 15.165C288.72 15.2952 288.941 15.3604 289.205 15.3604C289.469 15.3604 289.716 15.2936 289.947 15.1602C290.178 15.0234 290.341 14.8395 290.436 14.6084C290.533 14.374 290.582 14.0355 290.582 13.5928V10.8145H291.461V16H290.675ZM292.491 14.4521L293.36 14.3154C293.409 14.6637 293.544 14.9307 293.766 15.1162C293.99 15.3018 294.303 15.3945 294.703 15.3945C295.107 15.3945 295.406 15.3132 295.602 15.1504C295.797 14.9844 295.895 14.7907 295.895 14.5693C295.895 14.3708 295.808 14.2145 295.636 14.1006C295.515 14.0225 295.216 13.9232 294.737 13.8027C294.093 13.64 293.645 13.5 293.395 13.3828C293.147 13.2624 292.958 13.098 292.828 12.8896C292.701 12.6781 292.638 12.4453 292.638 12.1914C292.638 11.9603 292.69 11.7471 292.794 11.5518C292.901 11.3532 293.046 11.1888 293.229 11.0586C293.365 10.9577 293.551 10.873 293.785 10.8047C294.023 10.7331 294.277 10.6973 294.547 10.6973C294.954 10.6973 295.31 10.7559 295.616 10.873C295.925 10.9902 296.153 11.1497 296.3 11.3516C296.446 11.5501 296.547 11.8171 296.603 12.1523L295.743 12.2695C295.704 12.0026 295.59 11.7943 295.401 11.6445C295.216 11.4948 294.952 11.4199 294.61 11.4199C294.207 11.4199 293.919 11.4867 293.746 11.6201C293.574 11.7536 293.487 11.9098 293.487 12.0889C293.487 12.2028 293.523 12.3053 293.595 12.3965C293.666 12.4909 293.779 12.569 293.932 12.6309C294.02 12.6634 294.278 12.7383 294.708 12.8555C295.33 13.0215 295.763 13.1582 296.007 13.2656C296.254 13.3698 296.448 13.5228 296.588 13.7246C296.728 13.9264 296.798 14.1771 296.798 14.4766C296.798 14.7695 296.712 15.0462 296.539 15.3066C296.37 15.5638 296.124 15.764 295.802 15.9072C295.479 16.0472 295.115 16.1172 294.708 16.1172C294.034 16.1172 293.52 15.9772 293.165 15.6973C292.813 15.4173 292.589 15.0023 292.491 14.4521ZM301.393 14.3301L302.301 14.4424C302.158 14.973 301.892 15.3848 301.505 15.6777C301.118 15.9707 300.623 16.1172 300.021 16.1172C299.262 16.1172 298.66 15.8844 298.214 15.4189C297.771 14.9502 297.55 14.2943 297.55 13.4512C297.55 12.5788 297.774 11.9017 298.224 11.4199C298.673 10.9382 299.256 10.6973 299.972 10.6973C300.665 10.6973 301.231 10.9333 301.671 11.4053C302.11 11.8773 302.33 12.5413 302.33 13.3975C302.33 13.4495 302.328 13.5277 302.325 13.6318H298.458C298.491 14.2015 298.652 14.6377 298.941 14.9404C299.231 15.2432 299.592 15.3945 300.025 15.3945C300.348 15.3945 300.623 15.3099 300.851 15.1406C301.078 14.9714 301.259 14.7012 301.393 14.3301ZM298.507 12.9092H301.402C301.363 12.473 301.253 12.1458 301.07 11.9277C300.79 11.5892 300.427 11.4199 299.981 11.4199C299.578 11.4199 299.238 11.555 298.961 11.8252C298.688 12.0954 298.536 12.4567 298.507 12.9092ZM305.865 13.4072C305.865 12.4469 306.132 11.7357 306.666 11.2734C307.112 10.8893 307.656 10.6973 308.297 10.6973C309.01 10.6973 309.592 10.9316 310.045 11.4004C310.497 11.8659 310.724 12.5104 310.724 13.334C310.724 14.0013 310.623 14.527 310.421 14.9111C310.222 15.292 309.931 15.5882 309.547 15.7998C309.166 16.0114 308.749 16.1172 308.297 16.1172C307.571 16.1172 306.983 15.8844 306.534 15.4189C306.088 14.9535 305.865 14.2829 305.865 13.4072ZM306.769 13.4072C306.769 14.0713 306.913 14.5693 307.203 14.9014C307.493 15.2301 307.857 15.3945 308.297 15.3945C308.733 15.3945 309.096 15.2285 309.386 14.8965C309.675 14.5645 309.82 14.0583 309.82 13.3779C309.82 12.7367 309.674 12.2516 309.381 11.9229C309.091 11.5908 308.73 11.4248 308.297 11.4248C307.857 11.4248 307.493 11.5892 307.203 11.918C306.913 12.2467 306.769 12.7432 306.769 13.4072ZM311.969 16V11.498H311.192V10.8145H311.969V10.2627C311.969 9.91439 312 9.6556 312.062 9.48633C312.146 9.25846 312.294 9.07454 312.506 8.93457C312.721 8.79134 313.02 8.71973 313.404 8.71973C313.652 8.71973 313.925 8.74902 314.225 8.80762L314.093 9.57422C313.91 9.54167 313.738 9.52539 313.575 9.52539C313.308 9.52539 313.119 9.58236 313.009 9.69629C312.898 9.81022 312.843 10.0234 312.843 10.3359V10.8145H313.854V11.498H312.843V16H311.969ZM320.709 14.1006L321.573 14.2129C321.479 14.8086 321.236 15.2757 320.846 15.6143C320.458 15.9495 319.981 16.1172 319.415 16.1172C318.705 16.1172 318.134 15.8861 317.701 15.4238C317.271 14.9583 317.057 14.2926 317.057 13.4268C317.057 12.8669 317.149 12.377 317.335 11.957C317.521 11.5371 317.802 11.223 318.18 11.0146C318.561 10.8031 318.974 10.6973 319.42 10.6973C319.983 10.6973 320.444 10.8405 320.802 11.127C321.16 11.4102 321.389 11.8138 321.49 12.3379L320.636 12.4697C320.554 12.1214 320.41 11.8594 320.201 11.6836C319.996 11.5078 319.747 11.4199 319.454 11.4199C319.011 11.4199 318.652 11.5794 318.375 11.8984C318.098 12.2142 317.96 12.7155 317.96 13.4023C317.96 14.099 318.093 14.6051 318.36 14.9209C318.627 15.2367 318.976 15.3945 319.405 15.3945C319.75 15.3945 320.038 15.2887 320.27 15.0771C320.501 14.8656 320.647 14.54 320.709 14.1006ZM321.998 13.4072C321.998 12.4469 322.265 11.7357 322.799 11.2734C323.245 10.8893 323.788 10.6973 324.43 10.6973C325.143 10.6973 325.725 10.9316 326.178 11.4004C326.63 11.8659 326.856 12.5104 326.856 13.334C326.856 14.0013 326.756 14.527 326.554 14.9111C326.355 15.292 326.064 15.5882 325.68 15.7998C325.299 16.0114 324.882 16.1172 324.43 16.1172C323.704 16.1172 323.116 15.8844 322.667 15.4189C322.221 14.9535 321.998 14.2829 321.998 13.4072ZM322.901 13.4072C322.901 14.0713 323.046 14.5693 323.336 14.9014C323.626 15.2301 323.99 15.3945 324.43 15.3945C324.866 15.3945 325.229 15.2285 325.519 14.8965C325.808 14.5645 325.953 14.0583 325.953 13.3779C325.953 12.7367 325.807 12.2516 325.514 11.9229C325.224 11.5908 324.863 11.4248 324.43 11.4248C323.99 11.4248 323.626 11.5892 323.336 11.918C323.046 12.2467 322.901 12.7432 322.901 13.4072ZM327.564 13.4072C327.564 12.4469 327.831 11.7357 328.365 11.2734C328.811 10.8893 329.355 10.6973 329.996 10.6973C330.709 10.6973 331.292 10.9316 331.744 11.4004C332.197 11.8659 332.423 12.5104 332.423 13.334C332.423 14.0013 332.322 14.527 332.12 14.9111C331.922 15.292 331.63 15.5882 331.246 15.7998C330.865 16.0114 330.449 16.1172 329.996 16.1172C329.27 16.1172 328.683 15.8844 328.233 15.4189C327.787 14.9535 327.564 14.2829 327.564 13.4072ZM328.468 13.4072C328.468 14.0713 328.613 14.5693 328.902 14.9014C329.192 15.2301 329.557 15.3945 329.996 15.3945C330.432 15.3945 330.795 15.2285 331.085 14.8965C331.375 14.5645 331.52 14.0583 331.52 13.3779C331.52 12.7367 331.373 12.2516 331.08 11.9229C330.79 11.5908 330.429 11.4248 329.996 11.4248C329.557 11.4248 329.192 11.5892 328.902 11.918C328.613 12.2467 328.468 12.7432 328.468 13.4072ZM333.463 16V8.8418H334.342V12.9238L336.422 10.8145H337.56L335.577 12.7383L337.76 16H336.676L334.962 13.3486L334.342 13.9443V16H333.463ZM338.463 9.85254V8.8418H339.342V9.85254H338.463ZM338.463 16V10.8145H339.342V16H338.463ZM344.234 14.3301L345.143 14.4424C344.999 14.973 344.734 15.3848 344.347 15.6777C343.959 15.9707 343.465 16.1172 342.862 16.1172C342.104 16.1172 341.502 15.8844 341.056 15.4189C340.613 14.9502 340.392 14.2943 340.392 13.4512C340.392 12.5788 340.616 11.9017 341.065 11.4199C341.515 10.9382 342.097 10.6973 342.813 10.6973C343.507 10.6973 344.073 10.9333 344.513 11.4053C344.952 11.8773 345.172 12.5413 345.172 13.3975C345.172 13.4495 345.17 13.5277 345.167 13.6318H341.3C341.332 14.2015 341.493 14.6377 341.783 14.9404C342.073 15.2432 342.434 15.3945 342.867 15.3945C343.189 15.3945 343.465 15.3099 343.692 15.1406C343.92 14.9714 344.101 14.7012 344.234 14.3301ZM341.349 12.9092H344.244C344.205 12.473 344.094 12.1458 343.912 11.9277C343.632 11.5892 343.269 11.4199 342.823 11.4199C342.42 11.4199 342.079 11.555 341.803 11.8252C341.529 12.0954 341.378 12.4567 341.349 12.9092ZM345.899 14.4521L346.769 14.3154C346.817 14.6637 346.952 14.9307 347.174 15.1162C347.398 15.3018 347.711 15.3945 348.111 15.3945C348.515 15.3945 348.814 15.3132 349.01 15.1504C349.205 14.9844 349.303 14.7907 349.303 14.5693C349.303 14.3708 349.216 14.2145 349.044 14.1006C348.924 14.0225 348.624 13.9232 348.146 13.8027C347.501 13.64 347.053 13.5 346.803 13.3828C346.555 13.2624 346.367 13.098 346.236 12.8896C346.109 12.6781 346.046 12.4453 346.046 12.1914C346.046 11.9603 346.098 11.7471 346.202 11.5518C346.31 11.3532 346.454 11.1888 346.637 11.0586C346.773 10.9577 346.959 10.873 347.193 10.8047C347.431 10.7331 347.685 10.6973 347.955 10.6973C348.362 10.6973 348.718 10.7559 349.024 10.873C349.334 10.9902 349.562 11.1497 349.708 11.3516C349.854 11.5501 349.955 11.8171 350.011 12.1523L349.151 12.2695C349.112 12.0026 348.998 11.7943 348.81 11.6445C348.624 11.4948 348.36 11.4199 348.019 11.4199C347.615 11.4199 347.327 11.4867 347.154 11.6201C346.982 11.7536 346.896 11.9098 346.896 12.0889C346.896 12.2028 346.931 12.3053 347.003 12.3965C347.075 12.4909 347.187 12.569 347.34 12.6309C347.428 12.6634 347.687 12.7383 348.116 12.8555C348.738 13.0215 349.171 13.1582 349.415 13.2656C349.662 13.3698 349.856 13.5228 349.996 13.7246C350.136 13.9264 350.206 14.1771 350.206 14.4766C350.206 14.7695 350.12 15.0462 349.947 15.3066C349.778 15.5638 349.532 15.764 349.21 15.9072C348.888 16.0472 348.523 16.1172 348.116 16.1172C347.442 16.1172 346.928 15.9772 346.573 15.6973C346.222 15.4173 345.997 15.0023 345.899 14.4521ZM351.5 16V14.999H352.501V16H351.5ZM14.7324 27V19.8418H15.6797V26.1553H19.2051V27H14.7324ZM23.7754 25.3301L24.6836 25.4424C24.5404 25.973 24.2751 26.3848 23.8877 26.6777C23.5003 26.9707 23.0055 27.1172 22.4033 27.1172C21.6449 27.1172 21.0426 26.8844 20.5967 26.4189C20.154 25.9502 19.9326 25.2943 19.9326 24.4512C19.9326 23.5788 20.1572 22.9017 20.6064 22.4199C21.0557 21.9382 21.6383 21.6973 22.3545 21.6973C23.0479 21.6973 23.6143 21.9333 24.0537 22.4053C24.4932 22.8773 24.7129 23.5413 24.7129 24.3975C24.7129 24.4495 24.7113 24.5277 24.708 24.6318H20.8408C20.8734 25.2015 21.0345 25.6377 21.3242 25.9404C21.6139 26.2432 21.9753 26.3945 22.4082 26.3945C22.7305 26.3945 23.0055 26.3099 23.2334 26.1406C23.4613 25.9714 23.6419 25.7012 23.7754 25.3301ZM20.8896 23.9092H23.7852C23.7461 23.473 23.6354 23.1458 23.4531 22.9277C23.1732 22.5892 22.8102 22.4199 22.3643 22.4199C21.9606 22.4199 21.6204 22.555 21.3438 22.8252C21.0703 23.0954 20.9189 23.4567 20.8896 23.9092ZM29.1758 26.3604C28.8503 26.637 28.5361 26.8324 28.2334 26.9463C27.9339 27.0602 27.6117 27.1172 27.2666 27.1172C26.6969 27.1172 26.2591 26.9788 25.9531 26.7021C25.6471 26.4222 25.4941 26.0658 25.4941 25.6328C25.4941 25.3789 25.5511 25.1478 25.665 24.9395C25.7822 24.7279 25.9336 24.5586 26.1191 24.4316C26.3079 24.3047 26.5195 24.2087 26.7539 24.1436C26.9264 24.098 27.1868 24.054 27.5352 24.0117C28.2448 23.9271 28.7673 23.8262 29.1025 23.709C29.1058 23.5885 29.1074 23.512 29.1074 23.4795C29.1074 23.1214 29.0244 22.8691 28.8584 22.7227C28.6338 22.5241 28.3001 22.4248 27.8574 22.4248C27.444 22.4248 27.138 22.498 26.9395 22.6445C26.7441 22.7878 26.5993 23.0433 26.5049 23.4111L25.6455 23.2939C25.7236 22.9261 25.8522 22.6299 26.0312 22.4053C26.2103 22.1774 26.4691 22.0033 26.8076 21.8828C27.1462 21.7591 27.5384 21.6973 27.9844 21.6973C28.4271 21.6973 28.7868 21.7493 29.0635 21.8535C29.3402 21.9577 29.5436 22.0895 29.6738 22.249C29.804 22.4053 29.8952 22.6038 29.9473 22.8447C29.9766 22.9945 29.9912 23.2646 29.9912 23.6553V24.8271C29.9912 25.6442 30.0091 26.1618 30.0449 26.3799C30.084 26.5947 30.1589 26.8014 30.2695 27H29.3516C29.2604 26.8177 29.2018 26.6045 29.1758 26.3604ZM29.1025 24.3975C28.7835 24.5277 28.305 24.6383 27.667 24.7295C27.3057 24.7816 27.0501 24.8402 26.9004 24.9053C26.7507 24.9704 26.6351 25.0664 26.5537 25.1934C26.4723 25.3171 26.4316 25.4554 26.4316 25.6084C26.4316 25.8428 26.5195 26.0381 26.6953 26.1943C26.8743 26.3506 27.1348 26.4287 27.4766 26.4287C27.8151 26.4287 28.1162 26.3555 28.3799 26.209C28.6436 26.0592 28.8372 25.8558 28.9609 25.5986C29.0553 25.4001 29.1025 25.1071 29.1025 24.7197V24.3975ZM31.3486 27V21.8145H32.1396V22.6006C32.3415 22.2327 32.527 21.9902 32.6963 21.873C32.8688 21.7559 33.0576 21.6973 33.2627 21.6973C33.5589 21.6973 33.86 21.7917 34.166 21.9805L33.8633 22.7959C33.6484 22.6689 33.4336 22.6055 33.2188 22.6055C33.0267 22.6055 32.8542 22.6641 32.7012 22.7812C32.5482 22.8952 32.4391 23.0547 32.374 23.2598C32.2764 23.5723 32.2275 23.9141 32.2275 24.2852V27H31.3486ZM34.6885 27V21.8145H35.4795V22.5518C35.8604 21.9821 36.4105 21.6973 37.1299 21.6973C37.4424 21.6973 37.7288 21.7542 37.9893 21.8682C38.2529 21.9788 38.4499 22.1253 38.5801 22.3076C38.7103 22.4899 38.8014 22.7064 38.8535 22.957C38.8861 23.1198 38.9023 23.4046 38.9023 23.8115V27H38.0234V23.8457C38.0234 23.4876 37.9893 23.2207 37.9209 23.0449C37.8525 22.8659 37.7305 22.7243 37.5547 22.6201C37.3822 22.5127 37.1787 22.459 36.9443 22.459C36.57 22.459 36.2461 22.5778 35.9727 22.8154C35.7025 23.0531 35.5674 23.5039 35.5674 24.168V27H34.6885ZM43.0381 27V21.8145H43.8242V22.542C43.987 22.2881 44.2035 22.0846 44.4736 21.9316C44.7438 21.7754 45.0514 21.6973 45.3965 21.6973C45.7806 21.6973 46.0947 21.777 46.3389 21.9365C46.5863 22.096 46.7604 22.319 46.8613 22.6055C47.2715 22 47.8053 21.6973 48.4629 21.6973C48.9772 21.6973 49.3727 21.8405 49.6494 22.127C49.9261 22.4102 50.0645 22.848 50.0645 23.4404V27H49.1904V23.7334C49.1904 23.3818 49.1611 23.1296 49.1025 22.9766C49.0472 22.8203 48.9447 22.695 48.7949 22.6006C48.6452 22.5062 48.4694 22.459 48.2676 22.459C47.903 22.459 47.6003 22.5811 47.3594 22.8252C47.1185 23.0661 46.998 23.4535 46.998 23.9873V27H46.1191V23.6309C46.1191 23.2402 46.0475 22.9473 45.9043 22.752C45.7611 22.5566 45.5267 22.459 45.2012 22.459C44.9538 22.459 44.7243 22.5241 44.5127 22.6543C44.3044 22.7845 44.153 22.9749 44.0586 23.2256C43.9642 23.4762 43.917 23.8376 43.917 24.3096V27H43.0381ZM51.041 24.4072C51.041 23.4469 51.3079 22.7357 51.8418 22.2734C52.2878 21.8893 52.8314 21.6973 53.4727 21.6973C54.1855 21.6973 54.7682 21.9316 55.2207 22.4004C55.6732 22.8659 55.8994 23.5104 55.8994 24.334C55.8994 25.0013 55.7985 25.527 55.5967 25.9111C55.3981 26.292 55.1068 26.5882 54.7227 26.7998C54.3418 27.0114 53.9251 27.1172 53.4727 27.1172C52.7467 27.1172 52.1592 26.8844 51.71 26.4189C51.264 25.9535 51.041 25.2829 51.041 24.4072ZM51.9443 24.4072C51.9443 25.0713 52.0892 25.5693 52.3789 25.9014C52.6686 26.2301 53.0332 26.3945 53.4727 26.3945C53.9089 26.3945 54.2718 26.2285 54.5615 25.8965C54.8512 25.5645 54.9961 25.0583 54.9961 24.3779C54.9961 23.7367 54.8496 23.2516 54.5566 22.9229C54.2669 22.5908 53.9056 22.4248 53.4727 22.4248C53.0332 22.4248 52.6686 22.5892 52.3789 22.918C52.0892 23.2467 51.9443 23.7432 51.9443 24.4072ZM56.9248 27V21.8145H57.7158V22.6006C57.9176 22.2327 58.1032 21.9902 58.2725 21.873C58.445 21.7559 58.6338 21.6973 58.8389 21.6973C59.1351 21.6973 59.4362 21.7917 59.7422 21.9805L59.4395 22.7959C59.2246 22.6689 59.0098 22.6055 58.7949 22.6055C58.6029 22.6055 58.4303 22.6641 58.2773 22.7812C58.1243 22.8952 58.0153 23.0547 57.9502 23.2598C57.8525 23.5723 57.8037 23.9141 57.8037 24.2852V27H56.9248ZM63.8145 25.3301L64.7227 25.4424C64.5794 25.973 64.3141 26.3848 63.9268 26.6777C63.5394 26.9707 63.0446 27.1172 62.4424 27.1172C61.6839 27.1172 61.0817 26.8844 60.6357 26.4189C60.193 25.9502 59.9717 25.2943 59.9717 24.4512C59.9717 23.5788 60.1963 22.9017 60.6455 22.4199C61.0947 21.9382 61.6774 21.6973 62.3936 21.6973C63.0869 21.6973 63.6533 21.9333 64.0928 22.4053C64.5322 22.8773 64.752 23.5413 64.752 24.3975C64.752 24.4495 64.7503 24.5277 64.7471 24.6318H60.8799C60.9124 25.2015 61.0736 25.6377 61.3633 25.9404C61.653 26.2432 62.0143 26.3945 62.4473 26.3945C62.7695 26.3945 63.0446 26.3099 63.2725 26.1406C63.5003 25.9714 63.681 25.7012 63.8145 25.3301ZM60.9287 23.9092H63.8242C63.7852 23.473 63.6745 23.1458 63.4922 22.9277C63.2122 22.5892 62.8493 22.4199 62.4033 22.4199C61.9997 22.4199 61.6595 22.555 61.3828 22.8252C61.1094 23.0954 60.958 23.4567 60.9287 23.9092ZM66.0801 27V25.999H67.0811V27H66.0801Z" fill="white"/>
<path d="M14 28.4258H65.167V29.1582H14V28.4258Z" fill="white"/>
<g clip-path="url(#clip0_17_515)">
<path d="M372 3C367.589 3 364 6.58876 364 11C364 15.4112 367.589 19 372 19C376.411 19 380 15.4112 380 11C380 6.58876 376.411 3 372 3ZM372 17.8571C368.219 17.8571 365.143 14.781 365.143 11C365.143 7.21898 368.219 4.14286 372 4.14286C375.781 4.14286 378.857 7.21898 378.857 11C378.857 14.781 375.781 17.8571 372 17.8571Z" fill="white"/>
<path d="M374.452 8.54843C374.228 8.32525 373.867 8.32525 373.643 8.54843L372 10.1919L370.357 8.54836C370.133 8.32519 369.772 8.32519 369.548 8.54836C369.325 8.77154 369.325 9.13331 369.548 9.35649L371.192 11L369.548 12.6435C369.325 12.8666 369.325 13.2284 369.548 13.4516C369.66 13.5632 369.806 13.619 369.952 13.619C370.099 13.619 370.245 13.5632 370.357 13.4516L372 11.8081L373.643 13.4516C373.755 13.5632 373.901 13.619 374.048 13.619C374.194 13.619 374.34 13.5632 374.452 13.4516C374.675 13.2284 374.675 12.8666 374.452 12.6435L372.808 11L374.452 9.35649C374.675 9.13338 374.675 8.77154 374.452 8.54843Z" fill="white"/>
</g>
<defs>
<clipPath id="clip0_17_515">
<rect width="16" height="16" fill="white" transform="translate(364 3)"/>
</clipPath>
</defs>
</svg>
