<svg width="24" height="24" viewBox="0 0 24 24" fill="none" xmlns="http://www.w3.org/2000/svg">
<path d="M3.72458 10.0146H16.3635C16.966 10.0146 17.4544 9.52619 17.4544 8.92372C17.4544 8.32125 16.966 7.83281 16.3635 7.83281H3.72458L5.13506 6.42241C5.56109 5.99645 5.56109 5.30568 5.13506 4.87965C4.70916 4.45361 4.0184 4.45361 3.59229 4.87965L0.319782 8.15216C0.294473 8.17739 0.270618 8.20379 0.247927 8.23143C0.2424 8.23819 0.237673 8.24547 0.232291 8.25237C0.215636 8.27354 0.199273 8.29477 0.184291 8.31717C0.179927 8.32372 0.176364 8.33063 0.172073 8.33725C0.157091 8.36067 0.1424 8.3843 0.129164 8.40896C0.126618 8.41383 0.124509 8.41899 0.121964 8.42387C0.108218 8.45056 0.0949818 8.47761 0.0834182 8.50554C0.0819636 8.50896 0.0809455 8.51259 0.0795636 8.51608C0.0677091 8.54547 0.0567273 8.57521 0.0474182 8.60583C0.0461818 8.60968 0.0455273 8.61368 0.0444364 8.61761C0.0356364 8.64765 0.0275636 8.67797 0.0213818 8.70903C0.0195636 8.71827 0.0187636 8.72779 0.0170909 8.7371C0.0125818 8.76285 0.00807273 8.78859 0.00552727 8.81485C0.00181818 8.85085 0 8.88721 0 8.92372C0 8.96023 0.00181818 8.99659 0.00552727 9.03267C0.00807273 9.05928 0.0127273 9.08525 0.0171636 9.11121C0.0187636 9.12023 0.0195636 9.12947 0.0213818 9.13841C0.0276364 9.16976 0.0356364 9.20037 0.0445091 9.2307C0.0456 9.23426 0.0462545 9.23805 0.0473455 9.24161C0.0567273 9.27237 0.0677091 9.30241 0.0797091 9.33208C0.0810182 9.33528 0.0819636 9.3387 0.0833455 9.3419C0.0949818 9.37005 0.108291 9.39725 0.122182 9.42408C0.124582 9.42881 0.126618 9.43376 0.129091 9.43848C0.142473 9.46328 0.157236 9.48714 0.172436 9.51077C0.176509 9.51717 0.18 9.52394 0.184218 9.53019C0.199273 9.55267 0.215782 9.57405 0.232364 9.59528C0.237673 9.60212 0.2424 9.60932 0.247855 9.61601C0.270618 9.64357 0.294473 9.67005 0.319709 9.69528L3.59222 12.9678C3.80524 13.1809 4.08444 13.2874 4.36364 13.2874C4.64284 13.2874 4.92204 13.1809 5.13498 12.9678C5.56102 12.5418 5.56102 11.8511 5.13498 11.425L3.72458 10.0146Z" fill="#EDEDED"/>
<path d="M15.0763 0C12.0985 0 9.32807 1.47724 7.66516 3.95149C7.32916 4.45149 7.46211 5.12931 7.96211 5.46538C8.46218 5.80138 9.13993 5.66858 9.47607 5.16844C10.7329 3.29825 12.8264 2.18175 15.0763 2.18175C18.7937 2.18182 21.8182 5.20618 21.8182 8.92371C21.8182 12.6412 18.7937 15.6656 15.0763 15.6656C12.833 15.6656 10.7429 14.5541 9.48516 12.6924C9.14778 12.1932 8.46982 12.062 7.97047 12.3992C7.47127 12.7365 7.33993 13.4146 7.67724 13.9138C9.34131 16.3769 12.1073 17.8474 15.0763 17.8474C19.9968 17.8474 24 13.8443 24 8.92371C24 4.00313 19.9968 0 15.0763 0Z" fill="#EDEDED"/>
</svg>
