<svg width="20" height="20" viewBox="0 0 20 20" fill="none" xmlns="http://www.w3.org/2000/svg">
<path d="M10 0C5.92501 0 2.60971 3.31524 2.60971 7.39029C2.60971 11.3356 9.34704 19.4834 9.63384 19.8283C9.72431 19.937 9.85847 20 10 20C10.1415 20 10.2757 19.9371 10.3662 19.8283C10.653 19.4833 17.3903 11.3356 17.3903 7.39029C17.3903 3.31524 14.075 0 10 0ZM10 18.7681C9.4026 18.0222 8.16139 16.4328 6.93314 14.6159C4.72781 11.3538 3.56209 8.85518 3.56209 7.39029C3.56209 3.84038 6.45016 0.952381 10 0.952381C13.5498 0.952381 16.4379 3.84038 16.4379 7.39029C16.4379 8.85511 15.2722 11.3537 13.0669 14.6159C11.8385 16.4328 10.5974 18.0222 10 18.7681Z" fill="black"/>
<path d="M12.4227 13.5845C12.2048 13.4373 11.9087 13.4947 11.7615 13.7126C11.1189 14.6638 10.3991 15.6608 9.62191 16.6757C9.46204 16.8846 9.50165 17.1834 9.71048 17.3433C9.79683 17.4095 9.89861 17.4415 9.99962 17.4415C10.1427 17.4415 10.2843 17.3771 10.378 17.2547C11.1666 16.2249 11.8976 15.2125 12.5507 14.2457C12.6979 14.0278 12.6406 13.7317 12.4227 13.5845Z" fill="black"/>
<path d="M10 3.65082C7.84693 3.65082 6.09525 5.4025 6.09525 7.55558C6.09525 9.70866 7.84693 11.4603 10 11.4603C12.1531 11.4603 13.9048 9.70866 13.9048 7.55558C13.9048 5.4025 12.1531 3.65082 10 3.65082ZM10 10.508C8.37207 10.508 7.04763 9.18352 7.04763 7.55558C7.04763 5.92764 8.37207 4.6032 10 4.6032C11.628 4.6032 12.9524 5.92764 12.9524 7.55558C12.9524 9.18352 11.628 10.508 10 10.508Z" fill="black"/>
</svg>
