<svg width="28" height="28" viewBox="0 0 24 24" fill="none" xmlns="http://www.w3.org/2000/svg">
<rect width="24" height="24" fill="#2C3E50"/>
<path d="M12.0216 2.05965C9.27558 -0.686226 4.80617 -0.686226 2.06011 2.05965C-0.685359 4.80613 -0.685359 9.27465 2.06011 12.0211C4.50555 14.4658 8.31419 14.7277 11.0585 12.8188C11.1162 13.092 11.2484 13.3527 11.4609 13.5652L15.46 17.5641C16.0428 18.1456 16.9846 18.1456 17.5644 17.5641C18.1466 16.9819 18.1466 16.0402 17.5644 15.4599L13.5652 11.4598C13.3539 11.2491 13.0926 11.1164 12.8193 11.0586C14.7296 8.31392 14.4677 4.50612 12.0216 2.05965ZM10.759 10.7586C8.70887 12.8086 5.37228 12.8086 3.32271 10.7586C1.27373 8.70857 1.27373 5.3728 3.32271 3.32277C5.37228 1.27333 8.70887 1.27333 10.759 3.32277C12.8092 5.3728 12.8092 8.70857 10.759 10.7586Z" fill="#EDEDED"/>
</svg>
