<svg width="20" height="20" viewBox="0 0 20 20" fill="none" xmlns="http://www.w3.org/2000/svg">
<g clip-path="url(#clip0_20_589)">
<path d="M10 0C4.48602 0 0 4.48602 0 10C0 15.514 4.48602 20 10 20C15.514 20 20 15.514 20 10C20 4.48602 15.514 0 10 0ZM10 18.6957C5.20523 18.6957 1.30434 14.7948 1.30434 10C1.30434 5.2052 5.20523 1.30434 10 1.30434C14.7948 1.30434 18.6957 5.20523 18.6957 10C18.6957 14.7948 14.7948 18.6957 10 18.6957Z" fill="black"/>
<path d="M10 2.82611C6.0443 2.82611 2.8261 6.04431 2.8261 10C2.8261 13.9557 6.0443 17.1739 10 17.1739C13.9557 17.1739 17.1739 13.9557 17.1739 10C17.1739 6.04431 13.9557 2.82611 10 2.82611ZM10 15.8696C6.76352 15.8696 4.13043 13.2365 4.13043 10C4.13043 6.76353 6.76352 4.13045 10 4.13045C13.2365 4.13045 15.8696 6.76353 15.8696 10C15.8696 13.2365 13.2365 15.8696 10 15.8696Z" fill="black"/>
<path d="M10.3048 9.42344C9.62055 9.0618 8.91301 8.68773 8.91301 8.26086C8.91301 7.66152 9.40063 7.17391 9.99996 7.17391C10.5993 7.17391 11.0869 7.66152 11.0869 8.26086C11.0869 8.62102 11.3789 8.91305 11.7391 8.91305C12.0993 8.91305 12.3913 8.62105 12.3913 8.26086C12.3913 7.1684 11.6547 6.24539 10.6522 5.9607V5.65219C10.6522 5.29203 10.3602 5 9.99996 5C9.63981 5 9.34778 5.29199 9.34778 5.65219V5.9607C8.34532 6.24535 7.60864 7.1684 7.60864 8.26086C7.60864 9.47367 8.76555 10.0852 9.6952 10.5766C10.3794 10.9382 11.0869 11.3123 11.0869 11.7391C11.0869 12.3385 10.5993 12.8261 9.99993 12.8261C9.40059 12.8261 8.91297 12.3385 8.91297 11.7391C8.91297 11.379 8.62098 11.087 8.26078 11.087C7.90059 11.087 7.6086 11.3789 7.6086 11.7391C7.6086 12.8316 8.34524 13.7546 9.34774 14.0393V14.3478C9.34774 14.708 9.63973 15 9.99993 15C10.3601 15 10.6521 14.708 10.6521 14.3478V14.0393C11.6546 13.7546 12.3913 12.8316 12.3913 11.7391C12.3913 10.5263 11.2344 9.91484 10.3048 9.42344Z" fill="black"/>
</g>
<defs>
<clipPath id="clip0_20_589">
<rect width="20" height="20" fill="white"/>
</clipPath>
</defs>
</svg>
