<svg width="28" height="28" viewBox="0 0 24 24" fill="none" xmlns="http://www.w3.org/2000/svg">
<path d="M19.3634 15.8807L17.0164 13.0007L16.9328 7.92857C16.9356 7.89434 16.9356 7.85994 16.9328 7.82571C16.1934 3.80143 13.8528 1.5 10.5027 1.5C6.9662 1.5 4.12411 4.07143 3.42966 7.81286C3.42618 7.85135 3.42618 7.89008 3.42966 7.92857L3.34607 13.0714L1.59066 15.9514C1.53423 16.0492 1.50452 16.16 1.50452 16.2729C1.50452 16.3857 1.53423 16.4966 1.59066 16.5943C1.64513 16.6938 1.72498 16.7772 1.8221 16.8359C1.91923 16.8946 2.03017 16.9266 2.14365 16.9286H7.93071C7.93071 17.6106 8.20169 18.2646 8.68404 18.7468C9.16639 19.2291 9.8206 19.5 10.5027 19.5C11.1849 19.5 11.8391 19.2291 12.3214 18.7468C12.8038 18.2646 13.0748 17.6106 13.0748 16.9286H18.8618C18.983 16.9282 19.1017 16.8936 19.2041 16.8288C19.3064 16.764 19.3884 16.6715 19.4405 16.5621C19.4933 16.4529 19.5141 16.3309 19.5004 16.2103C19.4868 16.0897 19.4393 15.9754 19.3634 15.8807V15.8807ZM10.5027 18.2143C10.1617 18.2143 9.83457 18.0788 9.59339 17.8377C9.35222 17.5966 9.21673 17.2696 9.21673 16.9286H11.7888C11.7888 17.2696 11.6533 17.5966 11.4121 17.8377C11.1709 18.0788 10.8438 18.2143 10.5027 18.2143V18.2143ZM3.28177 15.6429L4.56779 13.56C4.62558 13.4627 4.65663 13.3518 4.65781 13.2386L4.71568 7.99286C5.30081 4.875 7.62207 2.78571 10.5027 2.78571C14.1229 2.78571 15.2803 6 15.6468 7.99286L15.7368 13.2386C15.7377 13.3836 15.7875 13.524 15.8783 13.6371L17.5115 15.6429H3.28177Z" fill="#EDEDED"/>
<path d="M16 11.5C18.4853 11.5 20.5 9.48528 20.5 7C20.5 4.51472 18.4853 2.5 16 2.5C13.5147 2.5 11.5 4.51472 11.5 7C11.5 9.48528 13.5147 11.5 16 11.5Z" fill="#FD5959" stroke="#2C3E50"/>
</svg>
