<svg width="22" height="22" viewBox="0 0 20 20" fill="none" xmlns="http://www.w3.org/2000/svg">
<path d="M10 8.79159C12.4239 8.79159 14.3959 6.81968 14.3959 4.3958C14.3959 1.97191 12.4239 0 10 0C7.57611 0 5.60413 1.97191 5.60413 4.3958C5.60413 6.81968 7.57611 8.79159 10 8.79159ZM10 2.10158C11.2651 2.10158 12.2943 3.13072 12.2943 4.3958C12.2943 5.66088 11.2651 6.69002 10 6.69002C8.73492 6.69002 7.70571 5.66088 7.70571 4.3958C7.70571 3.13072 8.73492 2.10158 10 2.10158Z" fill="#EDEDED"/>
<path d="M10 10.8932C5.5579 10.8932 1.94396 14.5071 1.94396 18.9492C1.94396 19.5295 2.41443 20 2.99475 20H17.0053C17.5856 20 18.056 19.5295 18.056 18.9492C18.056 14.5071 14.4421 10.8932 10 10.8932ZM4.13835 17.8984C4.63615 15.1146 7.07517 12.9948 10 12.9948C12.9248 12.9948 15.3639 15.1146 15.8616 17.8984H4.13835Z" fill="#EDEDED"/>
</svg>
