<svg width="22" height="22" viewBox="0 0 18 18" fill="none" xmlns="http://www.w3.org/2000/svg">
<g clip-path="url(#clip0_11_59)">
<path d="M17.393 6.40958L12.0264 5.6424L9.65109 0.773767C9.35602 0.205759 8.54458 0.323787 8.3491 0.773767L5.9738 5.6424L0.603546 6.40958C-0.00134437 6.44646 -0.193139 7.18045 0.219957 7.63411L4.09273 11.4294L3.17064 16.7591C3.06368 17.4156 3.7866 17.7845 4.20707 17.5263L8.99825 14.9961L13.7894 17.4894C14.291 17.7476 14.8886 17.3861 14.8259 16.7628L13.9038 11.4294L17.7765 7.63411C18.245 7.13619 17.9093 6.47228 17.393 6.40958ZM12.6387 10.6254C12.4837 10.8172 12.41 11.0458 12.4469 11.2782L13.1735 15.5715L9.34127 13.5392C9.09415 13.4359 8.86178 13.4359 8.65154 13.5392L4.81934 15.5715L5.54595 11.2782C5.58283 11.009 5.50906 10.7803 5.35415 10.6254L2.25224 7.59723L6.54549 6.98496C6.77417 6.94808 6.96596 6.83005 7.08399 6.60137L9.00194 2.7286L10.9199 6.60137C11.0342 6.79317 11.226 6.94808 11.4584 6.98496L15.7443 7.59723L12.6387 10.6254Z" fill="#EDEDED"/>
</g>
<defs>
<clipPath id="clip0_11_59">
<rect width="18" height="18" fill="white"/>
</clipPath>
</defs>
</svg>
