<svg width="21" height="20" viewBox="0 0 21 20" fill="none" xmlns="http://www.w3.org/2000/svg">
<path d="M20.4256 7.57002C20.3161 7.22549 20.0249 6.9744 19.6743 6.92238L13.7291 6.03921L11.0702 0.530466C10.9134 0.205665 10.5898 0 10.2356 0C9.88133 0 9.55776 0.205665 9.40103 0.530466L6.74234 6.03914L0.796872 6.92232C0.446317 6.9744 0.155015 7.22549 0.0455679 7.56996C-0.0638796 7.91449 0.0273887 8.29264 0.281091 8.54544L4.58323 12.8327L3.56725 18.8876C3.50737 19.2446 3.65088 19.6054 3.93747 19.8183C4.09959 19.9387 4.29162 20 4.48458 20C4.63268 20 4.78141 19.9639 4.9176 19.8907L10.2355 17.0323L15.5534 19.8907C15.6904 19.9643 15.8404 19.9994 15.989 20C16.5025 19.9992 16.9184 19.5735 16.9184 19.0484C16.9184 18.9754 16.9104 18.9041 16.8951 18.8358L15.8879 12.8327L20.1901 8.54544C20.4438 8.29264 20.5351 7.91449 20.4256 7.57002Z" fill="black"/>
</svg>
