<svg width="20" height="23" viewBox="0 0 20 23" fill="none" xmlns="http://www.w3.org/2000/svg">
<path d="M15.1926 4.90787L16.0812 3.5952C16.1836 3.44391 16.1392 3.24149 15.9819 3.14289L14.5168 2.22493C14.3588 2.12608 14.1484 2.16975 14.0464 2.32039L13.0963 3.72289C12.4798 3.48189 11.8409 3.31491 11.1854 3.22298V1.83068H11.3174C11.5052 1.83068 11.6574 1.68429 11.6574 1.50378V0.326908C11.6574 0.146389 11.5052 0 11.3174 0H8.62476C8.43697 0 8.28481 0.146389 8.28481 0.326908V1.50378C8.28481 1.68429 8.43697 1.83068 8.62476 1.83068H8.75679V3.22305C8.10104 3.31498 7.46209 3.48196 6.84584 3.72289L5.89584 2.32046C5.79372 2.16962 5.58309 2.12614 5.42543 2.225L3.96028 3.14296C3.80302 3.24149 3.75856 3.44397 3.86095 3.59527L4.74962 4.90793C2.8537 6.3749 1.63773 8.62507 1.63773 11.1522C1.63773 15.5714 5.376 19.1667 9.97106 19.1667C14.5661 19.1667 18.3044 15.5714 18.3044 11.1522C18.3045 8.67482 17.1296 6.40641 15.1926 4.90787ZM14.4305 2.95126L15.3261 3.51236L14.6455 4.51773C14.3562 4.32898 14.0299 4.14519 13.7229 3.99592L14.4305 2.95126ZM8.96477 0.653816H10.9776V1.17687C10.2197 1.17687 9.6577 1.17687 8.96477 1.17687V0.653816ZM10.5056 1.83068V3.13831H9.43674V1.83068H10.5056ZM4.61623 3.51236L5.51177 2.95126L6.21939 3.99592C5.89455 4.15389 5.56365 4.34362 5.29686 4.51773L4.61623 3.51236ZM9.9712 18.5128C5.75109 18.5128 2.31775 15.2108 2.31775 11.1521C2.31768 7.07134 5.76231 3.79213 9.9712 3.79213C13.0644 3.79213 15.7328 5.56083 16.9367 8.09848C16.9367 8.09848 17.6246 9.37624 17.6246 11.1521C17.6246 15.2108 14.1912 18.5128 9.9712 18.5128Z" fill="black"/>
<path d="M10.3111 10.2057V8.47797C10.3111 8.29745 10.159 8.15106 9.9712 8.15106C9.78341 8.15106 9.63126 8.29745 9.63126 8.47797V10.2057C9.22305 10.3417 8.92873 10.7142 8.92873 11.1525C8.92873 11.7053 9.39636 12.155 9.9712 12.155C10.546 12.155 11.0137 11.7053 11.0137 11.1525C11.0137 10.7142 10.7193 10.3417 10.3111 10.2057ZM9.9712 11.5011C9.77131 11.5011 9.60862 11.3447 9.60862 11.1525C9.60862 10.9602 9.77131 10.8038 9.9712 10.8038C10.1711 10.8038 10.3338 10.9602 10.3338 11.1525C10.3338 11.3447 10.1711 11.5011 9.9712 11.5011Z" fill="black"/>
<path d="M14.6899 6.663C14.6824 6.65411 14.6758 6.64463 14.6672 6.63632C14.6586 6.62802 14.6488 6.62181 14.6395 6.61455C13.4391 5.4722 11.7893 4.76562 9.97112 4.76562C8.15291 4.76562 6.50317 5.47227 5.3027 6.61462C5.29346 6.62181 5.28367 6.62808 5.27503 6.63639C5.2664 6.64469 5.25987 6.65411 5.25239 6.66306C2.69025 9.15345 2.68807 13.1486 5.25198 15.6414C5.2596 15.6505 5.26633 15.6602 5.2751 15.6687C5.28387 15.6771 5.29386 15.6835 5.30338 15.6909C7.89211 18.1539 12.0461 18.1579 14.6391 15.6909C14.6485 15.6836 14.6585 15.6772 14.6673 15.6687C14.6762 15.6602 14.6829 15.6505 14.6905 15.6414C15.8771 14.4876 16.6113 12.9026 16.6123 11.1555C16.6123 11.1545 16.6126 11.1535 16.6126 11.1526C16.6126 11.1515 16.6122 11.1506 16.6122 11.1496C16.6114 9.40222 15.877 7.81685 14.6899 6.663ZM15.6142 11.4794H15.9225C15.844 12.8143 15.2886 14.0283 14.4178 14.9663L14.2018 14.7585C14.0691 14.6308 13.8537 14.6308 13.7211 14.7585C13.5883 14.8862 13.5883 15.0932 13.7211 15.2208L13.9372 15.4286C12.9618 16.2662 11.6993 16.8005 10.3112 16.8759V16.5791C10.3112 16.3986 10.159 16.2522 9.97126 16.2522C9.78347 16.2522 9.63132 16.3986 9.63132 16.5791V16.8759C8.2432 16.8005 6.98072 16.2662 6.00536 15.4286L6.22143 15.2208C6.35421 15.0931 6.35421 14.8861 6.22143 14.7585C6.08878 14.6308 5.8734 14.6308 5.74075 14.7585L5.52468 14.9663C4.65396 14.0282 4.09849 12.8142 4.02003 11.4794H4.32829C4.51608 11.4794 4.66824 11.333 4.66824 11.1525C4.66824 10.972 4.51608 10.8256 4.32829 10.8256H4.02003C4.09842 9.49068 4.65389 8.27661 5.52468 7.33858L5.74075 7.54637C5.87346 7.67406 6.08878 7.67399 6.22143 7.54637C6.35421 7.41868 6.35421 7.21168 6.22143 7.08405L6.00536 6.87627C6.98072 6.03873 8.2432 5.5045 9.63138 5.42905V5.72582C9.63138 5.90634 9.78354 6.05273 9.97133 6.05273C10.1591 6.05273 10.3113 5.90634 10.3113 5.72582V5.42905C11.6994 5.5045 12.9619 6.03873 13.9373 6.87627L13.7212 7.08405C13.5884 7.21174 13.5884 7.41874 13.7212 7.54637C13.8539 7.67406 14.0693 7.67399 14.2019 7.54637L14.418 7.33858C15.2888 8.27661 15.8444 9.49068 15.9227 10.8256H15.6144C15.4266 10.8256 15.2745 10.972 15.2745 11.1525C15.2745 11.333 15.4264 11.4794 15.6142 11.4794Z" fill="black"/>
</svg>
